<?xml version="1.0" standalone="no"?>
<!DOCTYPE svg PUBLIC "-//W3C//DTD SVG 1.1//EN" "http://www.w3.org/Graphics/SVG/1.1/DTD/svg11.dtd" >
<svg>
<metadata>
Created by FontForge 20090914 at Wed Sep  2 14:57:57 2020
 By www-data
Copyright 1990-1998 Bitstream Inc.  All rights reserved.
</metadata>
<defs>
<font id="EngraversGothicBT-Regular" horiz-adv-x="1024" >
  <font-face 
    font-family="EngraversGothic BT"
    font-weight="400"
    font-stretch="semi-expanded"
    units-per-em="2048"
    panose-1="2 11 5 7 2 2 3 2 2 4"
    ascent="1556"
    descent="-492"
    x-height="852.001"
    cap-height="1110"
    bbox="-342 -483 2419 1696"
    underline-thickness="84"
    underline-position="-97"
    unicode-range="U+0020-U+F002"
  />
<missing-glyph horiz-adv-x="1229" 
d="M102 -362v1806h1024v-1806h-1024zM217 -248h795v1577h-795v-1577z" />
    <glyph glyph-name=".notdef" horiz-adv-x="1229" 
d="M102 -362v1806h1024v-1806h-1024zM217 -248h795v1577h-795v-1577z" />
    <glyph glyph-name="space" unicode=" " horiz-adv-x="682" 
 />
    <glyph glyph-name="exclam" unicode="!" horiz-adv-x="682" 
d="M401 287h-118l-17 817h152zM342 154c23.333 0 42.834 -8.66895 58.501 -26.002s23.5 -39.666 23.5 -66.999c0 -26 -7.83301 -47.5 -23.5 -64.5s-35.167 -25.5 -58.5 -25.5c-24 0 -44 8.5 -60 25.5s-24 38.5 -24 64.5c0 26.667 8.16699 48.834 24.5 66.501
s36.166 26.5 59.499 26.5z" />
    <glyph glyph-name="quotedbl" unicode="&#x22;" horiz-adv-x="569" 
d="M473 1434v-553h-102v553h102zM199 1434v-553h-101v553h101z" />
    <glyph glyph-name="numbersign" unicode="#" horiz-adv-x="1575" 
d="M975 864h-266l-97 -276h267zM918 1454l-168 -483h264l172 483h127l-170 -483h315l-37 -107h-317l-98 -276h340l-37 -109h-340l-170 -479h-129l172 479h-269l-172 -479h-127l170 479h-327l39 109h325l101 276h-353l35 107h354l173 483h127z" />
    <glyph glyph-name="dollar" unicode="$" horiz-adv-x="1366" 
d="M741 506l1.00098 -414c95.333 6 171 29 227 69s84 90.667 84 152c0 58.667 -27.833 105.5 -83.5 140.5s-131.834 52.5 -228.501 52.5zM178.001 158l76 110.001c58 -45.333 118.333 -81.833 181 -109.5s126 -46.5 190 -56.5v410c-130.667 7.33301 -230.334 34 -299.001 80
s-103 109.333 -103 190c0 84 37.167 153.333 111.5 208s170.833 83 289.5 85l1 164h116v-174c75.333 -12.667 144.833 -32.334 208.5 -59.001s124.834 -61.667 183.501 -105l-70 -104c-52 40 -104.167 72 -156.5 96s-107.5 41 -165.5 51l1 -315
c140 -3.33301 249.667 -33.5 329 -90.5s119 -133.5 119 -229.5s-42 -176.333 -126 -241s-191.667 -97 -323 -97v-233h-116v239c-84.667 9.33301 -163.5 28.833 -236.5 58.5s-143.167 70.5 -210.5 122.5zM625.001 635.001v316.999c-80 -4 -144.167 -21.167 -192.5 -51.5
s-72.5 -67.833 -72.5 -112.5c0 -44 21.833 -78.667 65.5 -104s110.167 -41.666 199.5 -48.999z" />
    <glyph glyph-name="percent" unicode="%" horiz-adv-x="1726" 
d="M1358 90c52.667 0 96.832 19 132.499 57s53.5 85.333 53.5 142c0 57.333 -17.667 105 -53 143s-79.666 57 -132.999 57c-52.667 0 -96.5 -19 -131.5 -57s-52.5 -85.667 -52.5 -143s17.5 -104.833 52.5 -142.5s78.833 -56.5 131.5 -56.5zM1358 -29
c-90 0 -164.831 30.168 -224.498 90.501s-89.5 136.166 -89.5 227.499s29.667 167 89 227s134.333 90 225 90c91.333 0 166.666 -29.833 225.999 -89.5s89 -135.5 89 -227.5s-29.833 -168 -89.5 -228s-134.834 -90 -225.501 -90zM1071 1051h143l-561 -1051h-143z
M367 557.001c52.667 0 96.832 19.3291 132.499 57.9961s53.5 86.334 53.5 143.001s-17.667 103.834 -53 141.501s-79.666 56.5 -132.999 56.5s-97.5 -18.667 -132.5 -56s-52.5 -84.666 -52.5 -141.999s17.667 -105.166 53 -143.499s79.333 -57.5 132 -57.5zM366.998 437.997
c-90 0 -165.167 30.168 -225.5 90.501s-90.5 136.166 -90.5 227.499s30 167.333 90 228s135.333 91 226 91s165.5 -30 224.5 -90s88.5 -136.333 88.5 -229c0 -92 -29.667 -168 -89 -228s-134 -90 -224 -90z" />
    <glyph glyph-name="ampersand" unicode="&#x26;" horiz-adv-x="1266" 
d="M895 248l-340 398.999c-90.667 -38.667 -158.667 -84.167 -204 -136.5s-68 -111.166 -68 -176.499c0 -70 24.333 -126.833 73 -170.5s112.334 -65.5 191.001 -65.5c59.333 0 118.166 12.5 176.499 37.5s115.5 62.5 171.5 112.5zM1188 355.999
c-15.333 -21.333 -31.999 -42.002 -49.999 -62.002s-37.667 -39.333 -59 -58l197 -228h-176l-123 139c-74.667 -62 -145.834 -107.167 -213.501 -135.5s-139.167 -42.5 -214.5 -42.5c-124.667 0 -224.5 32.667 -299.5 98s-112.5 152.333 -112.5 261
c0 86.667 27 163.834 81 231.501s137.667 129.5 251 185.5l-303 359h725l76 -121h-518l540 -637c28.667 28.667 51 51.834 67 69.501s30.667 35.5 44 53.5z" />
    <glyph glyph-name="quotesingle" unicode="'" horiz-adv-x="295" 
d="M199 1434v-553h-101v553h101z" />
    <glyph glyph-name="parenleft" unicode="(" horiz-adv-x="559" 
d="M389 1128l66 -76.999c-70.667 -60.667 -122.5 -131.334 -155.5 -212.001s-49.5 -176.667 -49.5 -288c0 -112 16.5 -208.667 49.5 -290s84.833 -152 155.5 -212l-66 -78c-94 86 -162.833 175.667 -206.5 269s-65.5 197 -65.5 311c0 113.333 21.833 216.5 65.5 309.5
s112.5 182.167 206.5 267.5z" />
    <glyph glyph-name="parenright" unicode=")" horiz-adv-x="559" 
d="M170 1128c94 -85.333 162.833 -174.501 206.5 -267.501s65.5 -196.167 65.5 -309.5c0 -114 -21.833 -217.667 -65.5 -311s-112.5 -183 -206.5 -269l-66 78c70.667 60 122.5 130.667 155.5 212s49.5 178 49.5 290c0 111.333 -16.5 207.333 -49.5 288
s-84.833 151.334 -155.5 212.001z" />
    <glyph glyph-name="asterisk" unicode="*" 
d="M510 729l-141 -207l-88 62l159 198l-233 62l37 102l221 -82v240h96l-4 -240l223 78l35 -100l-235 -64l161 -194l-90 -66z" />
    <glyph glyph-name="plus" unicode="+" horiz-adv-x="1706" 
d="M903 1221v-562h549v-98h-549v-561h-98v561h-551v98h551v562h98z" />
    <glyph glyph-name="comma" unicode="," horiz-adv-x="682" 
d="M248 -174c20 29.333 37.334 58.334 52.001 87.001s26.667 57.667 36 87h-8c-20.667 0 -37.834 8.5 -51.501 25.5s-20.5 38.5 -20.5 64.5c0 28.667 8.16699 52.167 24.5 70.5s36.833 27.5 61.5 27.5c28 0 50.667 -12.167 68 -36.5s26 -57.166 26 -98.499
c0 -36.667 -12.667 -76.834 -38 -120.501s-63 -90.834 -113 -141.501z" />
    <glyph glyph-name="hyphen" unicode="-" horiz-adv-x="526" 
d="M47 610h432v-121h-432v121z" />
    <glyph glyph-name="period" unicode="." horiz-adv-x="682" 
d="M342 154c23.333 0 42.834 -8.66895 58.501 -26.002s23.5 -39.666 23.5 -66.999c0 -26 -7.83301 -47.5 -23.5 -64.5s-35.167 -25.5 -58.5 -25.5c-24 0 -44 8.5 -60 25.5s-24 38.5 -24 64.5c0 26.667 8.16699 48.834 24.5 66.501s36.166 26.5 59.499 26.5z" />
    <glyph glyph-name="slash" unicode="/" horiz-adv-x="569" 
d="M487 1128h121l-526 -1318h-121z" />
    <glyph glyph-name="zero" unicode="0" horiz-adv-x="1366" 
d="M682 98c134.667 0 245.831 40.333 333.498 121s131.5 181.667 131.5 303c0 122.667 -43.667 224 -131 304s-198.666 120 -333.999 120s-246.666 -40 -333.999 -120s-131 -181.333 -131 -304c0 -120.667 44 -221.5 132 -302.5s199 -121.5 333 -121.5zM681.997 -29
c-176.667 0 -321.833 52.167 -435.5 156.5s-170.5 235.833 -170.5 394.5c0 159.333 57 291.333 171 396s259 157 435 157c176.667 0 322.167 -52.333 436.5 -157s171.5 -236.667 171.5 -396c0 -158.667 -57.167 -290.167 -171.5 -394.5s-259.833 -156.5 -436.5 -156.5z" />
    <glyph glyph-name="one" unicode="1" horiz-adv-x="1366" 
d="M612 -6v1061h140v-1061h-140z" />
    <glyph glyph-name="two" unicode="2" horiz-adv-x="1366" 
d="M240 0c-0.666992 24 -1.49902 50.668 -2.49902 80.001s-1.5 46.333 -1.5 51c0 112.667 23 198.667 69 258s126 109.333 240 150l161 54c205.333 68.667 308 131.667 308 189c0 47.333 -24.333 86.5 -73 117.5s-111 46.5 -187 46.5c-66 0 -133.5 -13.167 -202.5 -39.5
s-143.5 -67.833 -223.5 -124.5l-82 107c82 63.333 163.667 110.166 245 140.499s164.666 45.5 249.999 45.5c122.667 0 222.667 -27.833 300 -83.5s116 -126.167 116 -211.5c0 -113.333 -127.667 -212.666 -383 -297.999c-22 -8 -38.333 -13.667 -49 -17
c-156.667 -52.667 -254.167 -97.334 -292.5 -134.001s-57.5 -87 -57.5 -151c0 -6 0.166992 -12.5 0.5 -19.5s1.5 -18.167 3.5 -33.5h799v-127h-938z" />
    <glyph glyph-name="three" unicode="3" horiz-adv-x="1366" 
d="M203 319c87.333 -79.333 170.17 -136.003 248.503 -170.003s164.833 -51 259.5 -51c114.667 0 209.834 22.5 285.501 67.5s113.5 99.167 113.5 162.5c0 62.667 -28.833 109.334 -86.5 140.001s-145.5 46 -263.5 46h-47v127c8 -0.666992 17 -1.16699 27 -1.5
s24 -0.5 42 -0.5c86 0 148.833 11.333 188.5 34s59.5 58.334 59.5 107.001c0 49.333 -24.333 89.333 -73 120s-113.667 46 -195 46c-72.667 0 -144.334 -12.667 -215.001 -38s-141.667 -63.666 -213 -114.999l-82 112c75.333 56 156.666 98.333 243.999 127s178 43 272 43
c122.667 0 220.5 -26.833 293.5 -80.5s109.5 -125.167 109.5 -214.5c0 -40 -7.83301 -76.167 -23.5 -108.5s-39.834 -60.833 -72.501 -85.5c58.667 -26 103 -60.333 133 -103s45 -93 45 -151c0 -100.667 -50.333 -186 -151 -256s-228.334 -105 -383.001 -105
c-122.667 0 -232.5 19.667 -329.5 59s-187.833 101 -272.5 185z" />
    <glyph glyph-name="four" unicode="4" horiz-adv-x="1366" 
d="M326 383h628v500zM954 0v254h-839v129l839 668h138v-668h176v-129h-176v-254h-138z" />
    <glyph glyph-name="five" unicode="5" horiz-adv-x="1366" 
d="M166 166l70.002 117.001c92 -64.667 175.167 -111.334 249.5 -140.001s148.166 -43 221.499 -43c99.333 0 181.833 26.667 247.5 80s98.5 119 98.5 197c0 68.667 -33.333 125.334 -100 170.001s-153.667 67 -261 67c-62.667 0 -122.834 -8.5 -180.501 -25.5
s-117.5 -43.833 -179.5 -80.5h-86v543h850v-129h-713v-234c58.667 19.333 113.167 33.333 163.5 42s98.833 13 145.5 13c150 0 271.5 -35.667 364.5 -107s139.5 -163.333 139.5 -276c0 -109.333 -46.833 -201.5 -140.5 -276.5s-212.167 -112.5 -355.5 -112.5
c-92.667 0 -183 16.167 -271 48.5s-175.667 81.166 -263 146.499z" />
    <glyph glyph-name="six" unicode="6" horiz-adv-x="1366" 
d="M272 463c12.667 -101.333 66.501 -187.166 161.501 -257.499s205.833 -105.5 332.5 -105.5c102 0 187.5 25 256.5 75s103.5 109.667 103.5 179c0 72 -36 132.667 -108 182s-160.667 74 -266 74c-80 0 -158.833 -11.833 -236.5 -35.5s-158.834 -60.834 -243.501 -111.501z
M1124 799c-60 48 -123.497 84.5 -190.497 109.5s-134.5 37.5 -202.5 37.5c-124.667 0 -227.834 -29.667 -309.501 -89s-130.834 -140.333 -147.501 -243c82.667 43.333 161.834 75 237.501 95s154.5 30 236.5 30c152 0 277 -36 375 -108s147 -163.667 147 -275
c0 -114 -46.167 -206.667 -138.5 -278s-214.166 -107 -365.499 -107c-188 0 -342.833 53.333 -464.5 160s-182.5 239.667 -182.5 399c0 160.667 56.167 291.667 168.5 393s258.166 152 437.499 152c91.333 0 175.666 -14.5 252.999 -43.5s152.666 -74.5 225.999 -136.5z" />
    <glyph glyph-name="seven" unicode="7" horiz-adv-x="1366" 
d="M377 0l645 922h-809v129h1067l-741 -1051h-162z" />
    <glyph glyph-name="eight" unicode="8" horiz-adv-x="1366" 
d="M299 326c0 -68 34.5 -122.668 103.5 -164.001s162.167 -62 279.5 -62c116.667 0 209.334 20.5 278.001 61.5s103 95.833 103 164.5c0 70 -29.333 120.5 -88 151.5s-156.334 46.5 -293.001 46.5s-234.667 -15.667 -294 -47s-89 -81.666 -89 -150.999zM1018 597.999
c63.333 -30 110.502 -67.168 141.502 -111.501s46.5 -97.166 46.5 -158.499c0 -108.667 -47 -195.334 -141 -260.001s-221.667 -97 -383 -97c-162 0 -290.167 32.167 -384.5 96.5s-141.5 150.5 -141.5 258.5c0 61.333 16 114.833 48 160.5s79.333 82.834 142 111.501
c-38 24.667 -67 53.334 -87 86.001s-30 68.334 -30 107.001c0 86 40.667 154.5 122 205.5s191.666 76.5 330.999 76.5s249.666 -25.5 330.999 -76.5s122 -119.5 122 -205.5c0 -38.667 -10 -74.334 -30 -107.001s-49 -61.334 -87 -86.001zM991.002 796.998
c0 44 -27.999 79.833 -83.999 107.5s-131 41.5 -225 41.5c-94.667 0 -169.5 -14 -224.5 -42s-82.5 -65 -82.5 -111c0 -44 26.833 -78.333 80.5 -103s129.167 -37 226.5 -37c99.333 0 175.666 12.5 228.999 37.5s80 60.5 80 106.5z" />
    <glyph glyph-name="nine" unicode="9" horiz-adv-x="1366" 
d="M1092 584c-12.667 100.667 -66.501 186.167 -161.501 256.5s-205.833 105.5 -332.5 105.5c-101.333 0 -186.666 -25.167 -255.999 -75.5s-104 -110.5 -104 -180.5c0 -72 36.167 -132.667 108.5 -182s161.5 -74 267.5 -74c78.667 0 156.5 12 233.5 36s158.5 62 244.5 114z
M241.999 246c59.333 -48 122.497 -84.332 189.497 -108.999s134.833 -37 203.5 -37c124.667 0 227.834 29.5 309.501 88.5s130.834 139.5 147.501 241.5c-81.333 -42.667 -159.833 -73.834 -235.5 -93.501s-155.167 -29.5 -238.5 -29.5c-152 0 -277.333 36.167 -376 108.5
s-148 163.833 -148 274.5c0 114 46.5 206.667 139.5 278s215.167 107 366.5 107c188 0 342.833 -53.333 464.5 -160s182.5 -239.667 182.5 -399c0 -160 -56.167 -290.833 -168.5 -392.5s-258.166 -152.5 -437.499 -152.5c-92 0 -177 14.667 -255 44s-153.333 75 -226 137z
" />
    <glyph glyph-name="colon" unicode=":" horiz-adv-x="682" 
d="M342 154c23.333 0 42.834 -8.66895 58.501 -26.002s23.5 -39.666 23.5 -66.999c0 -26 -7.83301 -47.5 -23.5 -64.5s-35.167 -25.5 -58.5 -25.5c-24 0 -44 8.5 -60 25.5s-24 38.5 -24 64.5c0 26.667 8.16699 48.834 24.5 66.501s36.166 26.5 59.499 26.5zM342.001 726.998
c23.333 0 42.832 -8.33203 58.499 -24.999s23.5 -38.334 23.5 -65.001s-7.83301 -48.667 -23.5 -66s-35.167 -26 -58.5 -26s-43.166 8.66699 -59.499 26s-24.5 39.333 -24.5 66c0 26 8 47.5 24 64.5s36 25.5 60 25.5z" />
    <glyph glyph-name="semicolon" unicode=";" horiz-adv-x="682" 
d="M342 727c23.333 0 42.832 -8.33203 58.499 -24.999s23.5 -38.334 23.5 -65.001s-7.83301 -48.667 -23.5 -66s-35.167 -26 -58.5 -26s-43.166 8.66699 -59.499 26s-24.5 39.333 -24.5 66c0 26 8 47.5 24 64.5s36 25.5 60 25.5zM247.999 -173.999
c20 29.333 37.334 58.334 52.001 87.001s26.667 57.667 36 87h-8c-20.667 0 -37.834 8.5 -51.501 25.5s-20.5 38.5 -20.5 64.5c0 28.667 8.16699 52.167 24.5 70.5s36.833 27.5 61.5 27.5c28 0 50.667 -12.167 68 -36.5s26 -57.166 26 -98.499
c0 -36.667 -12.667 -76.834 -38 -120.501s-63 -90.834 -113 -141.501z" />
    <glyph glyph-name="less" unicode="&#x3c;" horiz-adv-x="1706" 
d="M1442 1026l-1022 -416l1022 -413v-109l-1178 481v82l1178 484v-109z" />
    <glyph glyph-name="equal" unicode="=" horiz-adv-x="1706" 
d="M1452 473v-98h-1198v98h1198zM1452 846v-98h-1198v98h1198z" />
    <glyph glyph-name="greater" unicode="&#x3e;" horiz-adv-x="1706" 
d="M1442 651v-82l-1178 -481v109l1022 413l-1022 416v109z" />
    <glyph glyph-name="question" unicode="?" horiz-adv-x="739" 
d="M256 268l-0.00195312 177.999c0 32.667 5.33301 61.5 16 86.5s33.334 55.167 68.001 90.5l170 170c14 13.333 23.667 26.5 29 39.5s8 29.167 8 48.5c0 36 -14.833 65.5 -44.5 88.5s-68.167 34.5 -115.5 34.5c-54 0 -98.833 -13.333 -134.5 -40
s-59.167 -64.667 -70.5 -114l-127 47c20.667 76.667 59 134.334 115 173.001s129 58 219 58c92 0 164.5 -23.167 217.5 -69.5s79.5 -109.833 79.5 -190.5c0 -31.333 -6.16699 -60.333 -18.5 -87s-32.166 -53 -59.499 -79l-174 -170c-13.333 -13.333 -23.5 -30 -30.5 -50
s-10.5 -43.333 -10.5 -70v-144h-137zM327.998 153.999c23.333 0 43.166 -8.83301 59.499 -26.5s24.5 -39.834 24.5 -66.501c0 -26 -8.16699 -47.5 -24.5 -64.5s-36.166 -25.5 -59.499 -25.5c-24 0 -44 8.5 -60 25.5s-24 38.5 -24 64.5c0 26.667 8 48.834 24 66.501
s36 26.5 60 26.5z" />
    <glyph glyph-name="at" unicode="@" horiz-adv-x="2048" 
d="M1298 836l60.001 124.997h94l-139 -562c-6.66699 -29.333 -11.167 -50.166 -13.5 -62.499s-3.5 -22.166 -3.5 -29.499c0 -28.667 9.5 -51.167 28.5 -67.5s45.167 -24.5 78.5 -24.5c34.667 0 70.167 7 106.5 21s71.166 34.333 104.499 61
c64.667 51.333 115 119.5 151 204.5s54 179.167 54 282.5c0 169.333 -66 308.333 -198 417s-301.667 163 -509 163c-116.667 0 -223.334 -16.5 -320.001 -49.5s-184 -82.833 -262 -149.5c-98 -84 -172 -180.833 -222 -290.5s-75 -230.5 -75 -362.5
c0 -116 20 -217.667 60 -305s101.333 -164.666 184 -231.999c68 -54.667 149.333 -97.334 244 -128.001s195 -46 301 -46c114 0 225.5 16.5 334.5 49.5s209.167 80.833 300.5 143.5l39 -55c-98 -74 -201.667 -129.5 -311 -166.5s-223.666 -55.5 -342.999 -55.5
c-127.333 0 -243 15.5 -347 46.5s-195.667 77.167 -275 138.5c-103.333 78.667 -179.666 169.834 -228.999 273.501s-74 224.167 -74 361.5c0 136 28.667 263.167 86 381.5s141.333 223.166 252 314.499c88 72.667 187.5 127.667 298.5 165s231.167 56 360.5 56
c108 0 210.667 -14.667 308 -44s180.333 -70.666 249 -123.999c86 -66 150.833 -142 194.5 -228s65.5 -179.333 65.5 -280c0 -114 -20.667 -217.167 -62 -309.5s-101.666 -169.833 -180.999 -232.5c-46.667 -36 -96.334 -63.5 -149.001 -82.5s-106.334 -28.5 -161.001 -28.5
c-64.667 0 -112.834 12.5 -144.501 37.5s-47.5 62.833 -47.5 113.5c0 2.66699 0.333008 7.33398 1 14.001s1 11.667 1 15c-34 -58 -76.333 -102.5 -127 -133.5s-106.667 -46.5 -168 -46.5c-102 0 -179.667 27.833 -233 83.5s-80 137.167 -80 244.5
c0 153.333 45 282.666 135 387.999s199.667 158 329 158c62.667 0 115.334 -13.667 158.001 -41s74.667 -68 96 -122zM1210 468.997l61.999 248c-12 62 -37.167 110.5 -75.5 145.5s-84.833 52.5 -139.5 52.5c-102.667 0 -187.5 -44.5 -254.5 -133.5
s-100.5 -201.5 -100.5 -337.5c0 -74 18.333 -131.667 55 -173s87.334 -62 152.001 -62c71.333 0 134.5 23.833 189.5 71.5s92.167 110.5 111.5 188.5z" />
    <glyph glyph-name="A" unicode="A" horiz-adv-x="1204" 
d="M356 426h486l-244 489zM0 0l541 1104h114l547 -1104h-149l-150 297h-610l-146 -297h-147z" />
    <glyph glyph-name="B" unicode="B" horiz-adv-x="1337" 
d="M303 668l528 0.000976562c58 0 102.333 13.167 133 39.5s46 64.166 46 113.499c0 52 -14.833 91 -44.5 117s-74.5 39 -134.5 39h-528v-309zM303 127.001l578 0.000976562c62.667 0 112 18.5 148 55.5s54 87.5 54 151.5c0 63.333 -18 113.666 -54 150.999
s-85.333 56 -148 56h-578v-414zM166 0.00195312l-0.000976562 1104h653c108.667 0 190.834 -23.167 246.501 -69.5s83.5 -114.833 83.5 -205.5c0 -44 -8.66699 -83.333 -26 -118s-42 -62.667 -74 -84c58.667 -34 103 -75.667 133 -125s45 -106 45 -170
c0 -102 -33.5 -182.833 -100.5 -242.5s-157.833 -89.5 -272.5 -89.5h-688z" />
    <glyph glyph-name="C" unicode="C" horiz-adv-x="1237" 
d="M1047 352l110 -82c-50.667 -96 -120 -169.833 -208 -221.5s-188 -77.5 -300 -77.5c-165.333 0 -301.833 54.5 -409.5 163.5s-161.5 247.167 -161.5 414.5c0 168 54 306.5 162 415.5s244.333 163.5 409 163.5c102 0 195 -22.333 279 -67s152.333 -108.334 205 -191.001
l-115 -82c-34.667 66 -84.667 117.667 -150 155s-138.333 56 -219 56c-124 0 -226.667 -42.5 -308 -127.5s-122 -192.5 -122 -322.5s40.667 -237.333 122 -322s184 -127 308 -127c86.667 0 163.667 21.333 231 64s123 105.334 167 188.001z" />
    <glyph glyph-name="D" unicode="D" horiz-adv-x="1294" 
d="M639 977h-336.001v-850h336c136 0 243 38.167 321 114.5s117 179.5 117 309.5c0 128 -39.667 231 -119 309s-185.666 117 -318.999 117zM638.999 1104c174 0 314.167 -51.332 420.5 -153.999s159.5 -236.334 159.5 -401.001c0 -166 -52.333 -299 -157 -399
s-245.667 -150 -423 -150h-473v1104h473z" />
    <glyph glyph-name="E" unicode="E" horiz-adv-x="1118" 
d="M166 0v1104h868v-127h-731v-324h442v-127h-442v-399h776v-127h-913z" />
    <glyph glyph-name="F" unicode="F" horiz-adv-x="1014" 
d="M166 0v1104h868v-127h-731v-324h442v-127h-442v-526h-137z" />
    <glyph glyph-name="G" unicode="G" horiz-adv-x="1266" 
d="M1012 299l0.00195312 162.001h-301v127h438v-332c-53.333 -92 -122.833 -162.5 -208.5 -211.5s-182.834 -73.5 -291.501 -73.5c-165.333 0 -301.833 54.5 -409.5 163.5s-161.5 247.167 -161.5 414.5c0 168 54 306.5 162 415.5s244.333 163.5 409 163.5
c102 0 195 -22.333 279 -67s152.333 -108.334 205 -191.001l-115 -82c-34.667 66 -84.667 117.667 -150 155s-138.333 56 -219 56c-124 0 -226.667 -42.5 -308 -127.5s-122 -192.5 -122 -322.5s40.667 -237.333 122 -322s184 -127 308 -127
c77.333 0 146.166 16.667 206.499 50s112.5 83 156.5 149z" />
    <glyph glyph-name="H" unicode="H" horiz-adv-x="1262" 
d="M166 0v1104h139v-436h651v436h138v-1104h-138v541h-651v-541h-139z" />
    <glyph glyph-name="I" unicode="I" horiz-adv-x="473" 
d="M168 0v1110h139v-1110h-139z" />
    <glyph glyph-name="J" unicode="J" horiz-adv-x="1100" 
d="M39 475h137v-172c0 -71.333 26.167 -123 78.5 -155s137.5 -48 255.5 -48c116 0 195.167 20 237.5 60s63.5 116.333 63.5 229v715h137v-752c0 -136 -35.667 -233.5 -107 -292.5s-190 -88.5 -356 -88.5c-151.333 0 -263.5 27 -336.5 81s-109.5 136.333 -109.5 247v176z" />
    <glyph glyph-name="K" unicode="K" horiz-adv-x="1200" 
d="M166 0v1106h137v-551l633 551h180l-446 -393l514 -713h-166l-447 618l-268 -225v-393h-137z" />
    <glyph glyph-name="L" unicode="L" 
d="M166 0v1104h137v-977h721v-127h-858z" />
    <glyph glyph-name="M" unicode="M" horiz-adv-x="1464" 
d="M160 0v1104h127l446 -676l449 676h125v-1104h-136v862l-438 -653l-438 653v-862h-135z" />
    <glyph glyph-name="N" unicode="N" horiz-adv-x="1255" 
d="M166 0v1104h72l716 -825v825h138v-1104h-70l-719 825v-825h-137z" />
    <glyph glyph-name="O" unicode="O" horiz-adv-x="1298" 
d="M649 100c124 0 226.667 42.332 308 126.999s122 192 122 322c0 130.667 -40.5 238.334 -121.5 323.001s-183.833 127 -308.5 127c-124 0 -226.667 -42.5 -308 -127.5s-122 -192.5 -122 -322.5s40.667 -237.333 122 -322s184 -127 308 -127zM649 -29.001
c-165.333 0 -301.833 54.499 -409.5 163.499s-161.5 247.167 -161.5 414.5c0 168 54 306.5 162 415.5s244.333 163.5 409 163.5c165.333 0 302.333 -54.667 411 -164s163 -247.666 163 -414.999s-54.167 -305.5 -162.5 -414.5s-245.5 -163.5 -411.5 -163.5z" />
    <glyph glyph-name="P" unicode="P" horiz-adv-x="1200" 
d="M297 612h487.001c69.333 0 121.833 15.333 157.5 46s53.5 75.667 53.5 135c0 58 -17.833 103.167 -53.5 135.5s-85.834 48.5 -150.501 48.5h-494v-365zM160.001 0v1104h633c107.333 0 191.833 -26.667 253.5 -80s92.5 -126.333 92.5 -219
c0 -96 -29.833 -173.667 -89.5 -233s-139.167 -89 -238.5 -89h-514v-483h-137z" />
    <glyph glyph-name="Q" unicode="Q" horiz-adv-x="1298" 
d="M664 102l-67.999 141.999h154l55 -117c86 34 153.167 88.167 201.5 162.5s72.5 160.833 72.5 259.5c0 130 -40.667 237.5 -122 322.5s-184 127.5 -308 127.5s-226.667 -42.5 -308 -127.5s-122 -192.5 -122 -322.5c0 -129.333 40.167 -236.166 120.5 -320.499
s182.166 -126.5 305.499 -126.5h19zM723.001 -25.001c-11.333 -1.33301 -23 -2.33398 -35 -3.00098s-29 -1 -51 -1c-158.667 0 -291.5 55 -398.5 165s-160.5 247.667 -160.5 413c0 168 54 306.5 162 415.5s244.333 163.5 409 163.5c165.333 0 302.333 -54.667 411 -164
s163 -247.666 163 -414.999c0 -125.333 -31.5 -235.333 -94.5 -330s-151.833 -165.667 -266.5 -213l74 -151h-154z" />
    <glyph glyph-name="R" unicode="R" horiz-adv-x="1223" 
d="M297 612h487.001c69.333 0 121.833 15.333 157.5 46s53.5 75.667 53.5 135c0 58 -17.833 103.167 -53.5 135.5s-85.834 48.5 -150.501 48.5h-494v-365zM160.001 0v1104h633c108 0 192.667 -27.167 254 -81.5s92 -129.5 92 -225.5c0 -80 -24 -148.5 -72 -205.5
s-111.333 -92.5 -190 -106.5l276 -485h-152l-276 483h-428v-483h-137z" />
    <glyph glyph-name="S" unicode="S" horiz-adv-x="1223" 
d="M61 166l79.999 118.998c78 -60.667 159.167 -107 243.5 -139s167.833 -48 250.5 -48c102 0 184.833 21.667 248.5 65s95.5 99 95.5 167c0 54 -22.833 98.5 -68.5 133.5s-108.834 55.833 -189.501 62.5c-19.333 2 -47.333 4 -84 6c-181.333 12.667 -305 34 -371 64
c-51.333 24.667 -90.333 56.5 -117 95.5s-40 82.833 -40 131.5c0 88.667 39.667 161.667 119 219s182.333 86 309 86c92 0 182.833 -15.167 272.5 -45.5s174.834 -75.166 255.501 -134.499l-80 -114c-68 54.667 -139.5 95.834 -214.5 123.501s-152.167 41.5 -231.5 41.5
c-83.333 0 -152 -16.167 -206 -48.5s-81 -72.833 -81 -121.5c0 -19.333 4.33301 -37 13 -53s22 -31 40 -45c45.333 -34 143.333 -55.667 294 -65c69.333 -4 123 -8.33301 161 -13c112 -12.667 200.667 -48.667 266 -108s98 -132.333 98 -219
c0 -103.333 -44.833 -188.333 -134.5 -255s-207.167 -100 -352.5 -100c-110 0 -212.167 16 -306.5 48s-184.166 81 -269.499 147z" />
    <glyph glyph-name="T" unicode="T" horiz-adv-x="854" 
d="M358 0v977h-464v127h1067v-127h-465v-977h-138z" />
    <glyph glyph-name="U" unicode="U" horiz-adv-x="1186" 
d="M274 1104v-715c0 -114.667 21.5 -191.5 64.5 -230.5s127.5 -58.5 253.5 -58.5s210.333 19.5 253 58.5s64 115.833 64 230.5v715h138v-752c0 -136 -35.333 -233.5 -106 -292.5s-187 -88.5 -349 -88.5s-278.333 29.5 -349 88.5s-106 156.5 -106 292.5v752h137z" />
    <glyph glyph-name="V" unicode="V" horiz-adv-x="1124" 
d="M604 0h-86l-532 1104h149l426 -885l426 885h152z" />
    <glyph glyph-name="W" unicode="W" horiz-adv-x="1475" 
d="M348 0l-360 1104h135l274 -852l281 852h123l280 -850l275 850h131l-359 -1104h-100l-291 889l-288 -889h-101z" />
    <glyph glyph-name="X" unicode="X" horiz-adv-x="1124" 
d="M29 0l450 555l-444 549h168l362 -442l361 442h166l-445 -543l457 -561h-176l-367 455l-371 -455h-161z" />
    <glyph glyph-name="Y" unicode="Y" horiz-adv-x="930" 
d="M395 0v553l-497 551h172l395 -436l393 436h174l-500 -553v-551h-137z" />
    <glyph glyph-name="Z" unicode="Z" horiz-adv-x="1042" 
d="M-4 0l745 977h-682v127h932l-729 -977h725v-127h-991z" />
    <glyph glyph-name="bracketleft" unicode="[" horiz-adv-x="559" 
d="M115 0v1104h319v-119h-192v-866h192v-119h-319z" />
    <glyph glyph-name="backslash" unicode="\" horiz-adv-x="569" 
d="M487 -190l-526 1318h121l526 -1318h-121z" />
    <glyph glyph-name="bracketright" unicode="]" horiz-adv-x="559" 
d="M446 0h-321v119h192v866h-192v119h321v-1104z" />
    <glyph glyph-name="asciicircum" unicode="^" horiz-adv-x="2048" 
d="M1094 1458l530 -557h-143l-457 455l-459 -455h-143l532 557h140z" />
    <glyph glyph-name="underscore" unicode="_" 
d="M1024 -383v-100h-1024v100h1024z" />
    <glyph glyph-name="grave" unicode="`" 
d="M545 987l-269 350h152l209 -350h-92z" />
    <glyph glyph-name="a" unicode="a" horiz-adv-x="920" 
d="M291 330h334l-166 327zM-18 0l434 854h84l438 -854h-143l-111 217h-451l-110 -217h-141z" />
    <glyph glyph-name="b" unicode="b" horiz-adv-x="1114" 
d="M668 729h-387.001v-201h389c42.667 0 74.834 8.5 96.501 25.5s32.5 42.167 32.5 75.5s-10.833 58.333 -32.5 75s-54.5 25 -98.5 25zM712.999 403l-432 -0.000976562v-280h432c46.667 0 82.834 12.333 108.501 37s38.5 59.334 38.5 104.001
c0 44 -12.833 78.167 -38.5 102.5s-61.834 36.5 -108.501 36.5zM146.999 -0.000976562l-0.000976562 852h525c86.667 0 152.334 -17.833 197.001 -53.5s67 -88.167 67 -157.5c0 -34.667 -7 -65.5 -21 -92.5s-34.333 -48.833 -61 -65.5c47.333 -26.667 83 -59.167 107 -97.5
s36 -81.5 36 -129.5c0 -79.333 -26.5 -141.833 -79.5 -187.5s-126.167 -68.5 -219.5 -68.5h-551z" />
    <glyph glyph-name="c" unicode="c" horiz-adv-x="1128" 
d="M1049 209c-48.667 -76.667 -112.499 -135.168 -191.499 -175.501s-168.833 -60.5 -269.5 -60.5c-150 0 -273.5 42.5 -370.5 127.5s-145.5 192.833 -145.5 323.5s48.5 238.834 145.5 324.501s220.5 128.5 370.5 128.5c93.333 0 178 -17.5 254 -52.5
s137.333 -84.5 184 -148.5l-106 -74c-35.333 48.667 -81.833 86.167 -139.5 112.5s-121.834 39.5 -192.501 39.5c-109.333 0 -199.833 -31.167 -271.5 -93.5s-107.5 -140.5 -107.5 -234.5s36 -172.167 108 -234.5s162.333 -93.5 271 -93.5c76 0 143 15 201 45
s109 76.667 153 140z" />
    <glyph glyph-name="d" unicode="d" horiz-adv-x="1057" 
d="M526 854c139.333 0 251.668 -39.833 337.001 -119.5s128 -183.167 128 -310.5c0 -128.667 -41.833 -231.5 -125.5 -308.5s-196.834 -115.5 -339.501 -115.5h-379v854h379zM528.002 731l-247 0.000976562v-608h247c101.333 0 181 27.167 239 81.5s87 128.166 87 221.499
c0 90 -30 163.333 -90 220s-138.667 85 -236 85z" />
    <glyph glyph-name="e" unicode="e" horiz-adv-x="1028" 
d="M145 0v854h801v-125h-667v-213h438v-123h-438v-270h704v-123h-838z" />
    <glyph glyph-name="f" unicode="f" horiz-adv-x="963" 
d="M279 393v-393h-134v854h789v-125h-655v-213h423v-123h-423z" />
    <glyph glyph-name="g" unicode="g" horiz-adv-x="1176" 
d="M725 332l0.00195312 122.999h352v-258c-49.333 -73.333 -113.666 -129 -192.999 -167s-171.333 -57 -276 -57c-157.333 0 -286 42.5 -386 127.5s-150 192.833 -150 323.5s50.333 238.834 151 324.501s229 128.5 385 128.5c98.667 0 186.167 -17 262.5 -51
s139.833 -84 190.5 -150l-103 -74c-36 47.333 -84.833 84.5 -146.5 111.5s-129.5 40.5 -203.5 40.5c-116.667 0 -212.334 -31 -287.001 -93s-112 -140.333 -112 -235s37.167 -173 111.5 -235s170.166 -93 287.499 -93c73.333 0 141.166 13.333 203.499 40
s105.833 60.667 130.5 102v92h-217z" />
    <glyph glyph-name="h" unicode="h" horiz-adv-x="1157" 
d="M279 397v-397h-134v854h134v-332h600v332h133v-854h-133v397h-600z" />
    <glyph glyph-name="i" unicode="i" horiz-adv-x="432" 
d="M147 0v856h136v-856h-136z" />
    <glyph glyph-name="j" unicode="j" horiz-adv-x="915" 
d="M49 365h133v-91c0 -61.333 19.667 -106.333 59 -135s101 -43 185 -43c84.667 0 142.667 17.333 174 52s47 100.667 47 198v506h133v-549c0 -118 -28.5 -202.5 -85.5 -253.5s-151.833 -76.5 -284.5 -76.5c-122 0 -212.667 23.333 -272 70s-89 117.667 -89 213v109z" />
    <glyph glyph-name="k" unicode="k" horiz-adv-x="973" 
d="M147 0v852h134v-379l452 379h176l-358 -303l412 -549h-150l-356 471l-176 -149v-322h-134z" />
    <glyph glyph-name="l" unicode="l" horiz-adv-x="920" 
d="M145 0v854h134v-731h634v-123h-768z" />
    <glyph glyph-name="m" unicode="m" horiz-adv-x="1214" 
d="M145 0v854h111l350 -500l350 500h111v-854h-133v614l-328 -475l-327 475v-614h-134z" />
    <glyph glyph-name="n" unicode="n" horiz-adv-x="1038" 
d="M147 0v854h70l543 -600v600h131v-854h-70l-542 598v-598h-132z" />
    <glyph glyph-name="o" unicode="o" horiz-adv-x="1190" 
d="M594 98c114 0 206.999 30.833 278.999 92.5s108 140.167 108 235.5c0 94.667 -36.167 173 -108.5 235s-165.166 93 -278.499 93s-205.833 -30.833 -277.5 -92.5s-107.5 -140.167 -107.5 -235.5s35.833 -173.833 107.5 -235.5s164.167 -92.5 277.5 -92.5zM593.999 -27
c-152 0 -277.001 43.001 -375.001 129.001s-147 194 -147 324c0 130.667 48.833 238.5 146.5 323.5s222.834 127.5 375.501 127.5c154 0 279.833 -42.333 377.5 -127s146.5 -192.667 146.5 -324c0 -130.667 -49 -238.834 -147 -324.501s-223.667 -128.5 -377 -128.5z" />
    <glyph glyph-name="p" unicode="p" horiz-adv-x="1090" 
d="M281 498h487c45.333 0 80.166 10 104.499 30s36.5 48.667 36.5 86c0 36.667 -11.667 65 -35 85s-56.666 30 -99.999 30h-493v-231zM281 373v-373.001h-134v854h621c88 0 156.5 -20.833 205.5 -62.5s73.5 -100.167 73.5 -175.5c0 -71.333 -24.333 -129.666 -73 -174.999
s-112.667 -68 -192 -68h-501z" />
    <glyph glyph-name="q" unicode="q" horiz-adv-x="1190" 
d="M764 123c68.667 28.667 121.998 69.667 159.998 123s57 113.333 57 180c0 94.667 -36.167 173 -108.5 235s-165.166 93 -278.499 93s-205.833 -30.833 -277.5 -92.5s-107.5 -140.167 -107.5 -235.5c0 -94 35.333 -172.167 106 -234.5s160.334 -93.5 269.001 -93.5
c4 0 10 0.333008 18 1s14.333 1 19 1l-86 105h161zM847.998 25l116.998 -142h-164l-84 100l-89.5 -8c-15 -1.33301 -26.167 -2 -33.5 -2c-152 0 -277 43 -375 129s-147 194 -147 324c0 130.667 48.833 238.5 146.5 323.5s222.834 127.5 375.501 127.5
c154 0 279.833 -42.333 377.5 -127s146.5 -192.667 146.5 -324c0 -88 -23.667 -166.833 -71 -236.5s-113.666 -124.5 -198.999 -164.5z" />
    <glyph glyph-name="r" unicode="r" horiz-adv-x="1110" 
d="M281 498h454c46 0 81.167 10 105.5 30s36.5 48.667 36.5 86s-12.167 65.833 -36.5 85.5s-59.5 29.5 -105.5 29.5h-454v-231zM281 373l0.000976562 -373h-134v852h588c87.333 0 155.666 -21 204.999 -63s74 -100.333 74 -175c0 -60.667 -19.5 -113.167 -58.5 -157.5
s-89.833 -71.5 -152.5 -81.5l237 -375h-145l-242 373h-372z" />
    <glyph glyph-name="s" unicode="s" horiz-adv-x="1014" 
d="M72 109l65.001 112c58.667 -39.333 122.667 -70 192 -92s135.666 -33 198.999 -33c76 0 137.333 15.5 184 46.5s70 70.833 70 119.5s-21.333 84.834 -64 108.501s-110 36.834 -202 39.501c-155.333 2 -262 20 -320 54s-87 90.333 -87 169
c0 73.333 31.833 132.333 95.5 177s149.167 67 256.5 67c73.333 0 144.5 -10.333 213.5 -31s135.5 -51.334 199.5 -92.001l-67 -111c-53.333 36 -110.666 63.833 -171.999 83.5s-120 29.5 -176 29.5c-64.667 0 -116.667 -11.333 -156 -34s-59 -52.334 -59 -89.001
c0 -38 19.833 -65 59.5 -81s108.5 -24 206.5 -24c136 0 238.667 -23 308 -69s104 -114.333 104 -205c0 -80.667 -35.167 -147.667 -105.5 -201s-161.5 -80 -273.5 -80c-82.667 0 -164.834 11.833 -246.501 35.5s-156.5 57.167 -224.5 100.5z" />
    <glyph glyph-name="t" unicode="t" horiz-adv-x="829" 
d="M348 0v735h-360v119h854v-119h-361v-735h-133z" />
    <glyph glyph-name="u" unicode="u" horiz-adv-x="1139" 
d="M147 852l133.998 0.000976562v-547c0 -82 19.333 -137.333 58 -166s115.334 -43 230.001 -43c115.333 0 192.333 14.333 231 43s58 84 58 166v547h133v-582c0 -104.667 -33.167 -180.334 -99.5 -227.001s-174.5 -70 -324.5 -70c-149.333 0 -256.666 23 -321.999 69
s-98 122 -98 228v582z" />
    <glyph glyph-name="v" unicode="v" horiz-adv-x="967" 
d="M518 0h-69l-429 854h142l321 -639l316 639h147z" />
    <glyph glyph-name="w" unicode="w" horiz-adv-x="1255" 
d="M307 0l-289 854h132l208 -625l215 625h111l215 -625l209 625h131l-287 -854h-96l-227 657l-228 -657h-94z" />
    <glyph glyph-name="x" unicode="x" horiz-adv-x="924" 
d="M20 0l359 428l-354 426h161l275 -328l274 328h164l-356 -422l360 -432h-162l-280 334l-283 -334h-158z" />
    <glyph glyph-name="y" unicode="y" horiz-adv-x="915" 
d="M391 0v436l-389 418h172l283 -303l278 303h178l-391 -416v-438h-131z" />
    <glyph glyph-name="z" unicode="z" horiz-adv-x="895" 
d="M35 0l553 729h-504v125h750l-558 -731h553v-123h-794z" />
    <glyph glyph-name="braceleft" unicode="{" 
d="M854 1370l-37.002 0.000976562c-87.333 0 -146.333 -16.5 -177 -49.5s-46 -101.167 -46 -204.5v-242c0 -112 -14.5 -192 -43.5 -240s-80.167 -82.667 -153.5 -104c73.333 -20.667 124.5 -55 153.5 -103s43.5 -128.333 43.5 -241v-241c0 -103.333 15 -171.5 45 -204.5
s86.667 -49.5 170 -49.5c4.66699 0 12 0.333008 22 1s17.667 1 23 1v-107h-47c-131.333 0 -220.166 24.167 -266.499 72.5s-69.5 147.166 -69.5 296.499v244c0 102.667 -19 175 -57 217s-103 63 -195 63c-4.66699 0 -11.834 -0.333008 -21.501 -1s-17.5 -1 -23.5 -1v109
c6 0 13.833 -0.333008 23.5 -1s16.834 -1 21.501 -1c92 0 157 21 195 63s57 114.333 57 217v242c0 148.667 23.333 247.667 70 297s135.334 74 266.001 74h47v-107z" />
    <glyph glyph-name="bar" unicode="|" 
d="M567 1565v-2048h-108v2048h108z" />
    <glyph glyph-name="braceright" unicode="}" 
d="M555 1106l-0.00195312 -241.998c0 -102.667 19 -175 57 -217s103 -63 195 -63c4.66699 0 12 0.333008 22 1s17.667 1 23 1v-109c-5.33301 0 -13 0.333008 -23 1s-17.333 1 -22 1c-92 0 -157 -21 -195 -63s-57 -114.333 -57 -217v-244
c0 -148.667 -23.167 -247.334 -69.5 -296.001s-135.166 -73 -266.499 -73h-47v107h39c86.667 0 145.167 16.333 175.5 49s45.5 100.334 45.5 203.001v241c0 114 14.333 194.667 43 242s80 81.333 154 102c-74 21.333 -125.333 55.666 -154 102.999s-43 127.666 -43 240.999
v242c0 104.667 -15 173.5 -45 206.5s-86.667 49.5 -170 49.5c-4.66699 0 -12 -0.333008 -22 -1s-17.667 -1 -23 -1v107h47c130.667 0 219.334 -24.667 266.001 -74s70 -148.333 70 -297z" />
    <glyph glyph-name="asciitilde" unicode="~" horiz-adv-x="1706" 
d="M1530 637c-68 -48 -134.001 -83.833 -198.001 -107.5s-127 -35.5 -189 -35.5c-66 0 -152.667 19 -260 57l-29 10l-16 6c-117.333 42.667 -208.333 64 -273 64c-55.333 0 -113.666 -12.667 -174.999 -38s-132 -66 -212 -122v113c70.667 48.667 138 85 202 109
s125.667 36 185 36c69.333 0 160 -20.333 272 -61c7.33301 -2.66699 13.333 -5 18 -7c6 -2 16.333 -5.66699 31 -11c111.333 -40 197 -60 257 -60c56.667 0 115.667 12.667 177 38s131.333 66 210 122v-113z" />
    <glyph glyph-name="euro" horiz-adv-x="1366" 
d="M1321 244c-53.333 -86.667 -126.666 -153.829 -219.999 -201.496s-199 -71.5 -317 -71.5c-148 0 -276.333 37.667 -385 113s-179 175 -211 299h-155l47 92l98 1c-0.666992 5.33301 -1.16699 11.166 -1.5 17.499s-0.5 15.833 -0.5 28.5c0 8 0.333008 16.667 1 26l3 41
l-147 1l47 92h115c36 119.333 107.333 214.666 214 285.999s231.667 107 375 107c108.667 0 208 -21.333 298 -64s163.667 -103.334 221 -182.001l-115 -84c-37.333 63.333 -91.666 112.666 -162.999 147.999s-151 53 -239 53c-102.667 0 -193.334 -23.667 -272.001 -71
s-134.667 -111.666 -168 -192.999h744l-50 -92h-716c-2 -19.333 -3.16699 -33.333 -3.5 -42s-0.833008 -17.334 -1.5 -26.001c0 -12.667 0.166992 -22.167 0.5 -28.5s1.16602 -12.5 2.49902 -18.5h659l-49 -92h-594c30 -86.667 85.5 -155.5 166.5 -206.5
s174.833 -76.5 281.5 -76.5c88 0 171.333 20.833 250 62.5s141.667 98.167 189 169.5z" />
    <glyph glyph-name="euro" unicode="&#x20ac;" horiz-adv-x="1366" 
d="M1321 244c-53.333 -86.667 -126.666 -153.829 -219.999 -201.496s-199 -71.5 -317 -71.5c-148 0 -276.333 37.667 -385 113s-179 175 -211 299h-155l47 92l98 1c-0.666992 5.33301 -1.16699 11.166 -1.5 17.499s-0.5 15.833 -0.5 28.5c0 8 0.333008 16.667 1 26l3 41
l-147 1l47 92h115c36 119.333 107.333 214.666 214 285.999s231.667 107 375 107c108.667 0 208 -21.333 298 -64s163.667 -103.334 221 -182.001l-115 -84c-37.333 63.333 -91.666 112.666 -162.999 147.999s-151 53 -239 53c-102.667 0 -193.334 -23.667 -272.001 -71
s-134.667 -111.666 -168 -192.999h744l-50 -92h-716c-2 -19.333 -3.16699 -33.333 -3.5 -42s-0.833008 -17.334 -1.5 -26.001c0 -12.667 0.166992 -22.167 0.5 -28.5s1.16602 -12.5 2.49902 -18.5h659l-49 -92h-594c30 -86.667 85.5 -155.5 166.5 -206.5
s174.833 -76.5 281.5 -76.5c88 0 171.333 20.833 250 62.5s141.667 98.167 189 169.5z" />
    <glyph glyph-name="nonbreakingspace" unicode="&#xa0;" horiz-adv-x="1366" 
 />
    <glyph glyph-name="exclamdown" unicode="&#xa1;" horiz-adv-x="682" 
d="M401 813l17 -813h-152l17 813h118zM342 946c-23.333 0 -43.167 8.83301 -59.5 26.5s-24.5 39.5 -24.5 65.5c0 26.667 8 48.334 24 65.001s36 25 60 25c23.333 0 42.833 -8.33301 58.5 -25s23.5 -38.334 23.5 -65.001s-7.83301 -48.667 -23.5 -66s-35.167 -26 -58.5 -26z
" />
    <glyph glyph-name="cent" unicode="&#xa2;" horiz-adv-x="1366" 
d="M664 201v644.999c-78 -13.333 -141.333 -49.833 -190 -109.5s-73 -131.167 -73 -214.5s23.5 -153.666 70.5 -210.999s111.167 -94 192.5 -110zM1001 697.999c-24.667 40.667 -54.832 72.834 -90.499 96.501s-78.5 40.167 -128.5 49.5v-645
c55.333 13.333 101.333 33.833 138 61.5s70 67.167 100 118.5l110 -74c-36 -66.667 -83.333 -119.5 -142 -158.5s-127.334 -63.167 -206.001 -72.5v-336h-118v334c-120 16 -216.667 65.333 -290 148s-110 183.334 -110 302.001c0 119.333 36.667 220.166 110 302.499
s170 131.166 290 146.499v268h118v-270c70 -7.33301 132.5 -27.333 187.5 -60s101.833 -77.667 140.5 -135z" />
    <glyph glyph-name="sterling" unicode="&#xa3;" horiz-adv-x="1366" 
d="M238 0l8 126.999h121l-29 332h-156v129h146l-11 86v5c-2.66699 24 -4 41.333 -4 52c0 106.667 36.167 190.667 108.5 252s171.5 92 297.5 92c84.667 0 167.667 -15.167 249 -45.5s163.333 -77.166 246 -140.499l-81 -107c-80.667 56.667 -154.167 98.167 -220.5 124.5
s-129.5 39.5 -189.5 39.5c-83.333 0 -149.833 -21 -199.5 -63s-74.5 -98 -74.5 -168c0 -11.333 1 -32 3 -62c0 -3.33301 0.333008 -6 1 -8l6 -57h342v-129h-330l29 -332h719v-127h-981z" />
    <glyph glyph-name="currency" unicode="&#xa4;" horiz-adv-x="1366" 
d="M1321 244c-53.333 -86.667 -126.666 -153.829 -219.999 -201.496s-199 -71.5 -317 -71.5c-148 0 -276.333 37.667 -385 113s-179 175 -211 299h-155l47 92l98 1c-0.666992 5.33301 -1.16699 11.166 -1.5 17.499s-0.5 15.833 -0.5 28.5c0 8 0.333008 16.667 1 26l3 41
l-147 1l47 92h115c36 119.333 107.333 214.666 214 285.999s231.667 107 375 107c108.667 0 208 -21.333 298 -64s163.667 -103.334 221 -182.001l-115 -84c-37.333 63.333 -91.666 112.666 -162.999 147.999s-151 53 -239 53c-102.667 0 -193.334 -23.667 -272.001 -71
s-134.667 -111.666 -168 -192.999h744l-50 -92h-716c-2 -19.333 -3.16699 -33.333 -3.5 -42s-0.833008 -17.334 -1.5 -26.001c0 -12.667 0.166992 -22.167 0.5 -28.5s1.16602 -12.5 2.49902 -18.5h659l-49 -92h-594c30 -86.667 85.5 -155.5 166.5 -206.5
s174.833 -76.5 281.5 -76.5c88 0 171.333 20.833 250 62.5s141.667 98.167 189 169.5z" />
    <glyph glyph-name="yen" unicode="&#xa5;" horiz-adv-x="1290" 
d="M911 760h263v-92h-343l-108 -115h451v-92h-463v-461h-133v461h-461v92h446l-102 115h-344v92h260l-283 313h168l383 -424l381 424h170z" />
    <glyph glyph-name="brokenbar" unicode="&#xa6;" 
d="M567 408v-758h-108v758h108zM567 1432v-758h-108v758h108z" />
    <glyph glyph-name="section" unicode="&#xa7;" 
d="M236 76h131.001v-4c0 -42.667 13 -75.5 39 -98.5s62.667 -34.5 110 -34.5c40.667 0 72.667 9.66699 96 29s35 45.666 35 78.999c0 30.667 -11.833 58.334 -35.5 83.001s-69.167 55 -136.5 91l-139 76c-52.667 28.667 -91.834 60.834 -117.501 96.501
s-38.5 75.834 -38.5 120.501c0 42.667 11.833 82.834 35.5 120.501s58.167 71.167 103.5 100.5c-24 19.333 -41.833 41.5 -53.5 66.5s-17.5 54.167 -17.5 87.5c0 70 23.833 127.333 71.5 172s109.167 67 184.5 67c82 0 146.833 -21.667 194.5 -65
s71.5 -102.666 71.5 -177.999v-8h-131c-1.33301 41.333 -14.166 74.166 -38.499 98.499s-56.5 36.5 -96.5 36.5c-37.333 0 -66.833 -9.33301 -88.5 -28s-32.5 -44.334 -32.5 -77.001c0 -25.333 8.33301 -48 25 -68s46.667 -41.667 90 -65l190 -102
c53.333 -28.667 92.333 -61 117 -97s37 -78 37 -126c0 -48.667 -13.333 -93.334 -40 -134.001s-61.334 -69.334 -104.001 -86.001c27.333 -22 47.833 -46.833 61.5 -74.5s20.5 -58.167 20.5 -91.5c0 -69.333 -26.333 -127.5 -79 -174.5s-119 -70.5 -199 -70.5
s-144.333 23.333 -193 70s-73 108 -73 184v4zM625.001 303c23.333 14 41.668 32.166 55.001 54.499s20 45.833 20 70.5c0 28 -8.5 52.333 -25.5 73s-53.5 46.334 -109.5 77.001l-166 94c-26.667 -16 -47 -33.667 -61 -53s-21 -40 -21 -62
c0 -27.333 8.16699 -51.333 24.5 -72s54.166 -48.667 113.499 -84z" />
    <glyph glyph-name="dieresis" unicode="&#xa8;" 
d="M584 1147c0 24.667 8.5 45.834 25.5 63.501s37.833 26.5 62.5 26.5s45.834 -8.83301 63.501 -26.5s26.5 -38.834 26.5 -63.501c0 -25.333 -8.83301 -46.666 -26.5 -63.999s-38.834 -26 -63.501 -26s-45.5 8.66699 -62.5 26s-25.5 38.666 -25.5 63.999zM262 1147
c0 24.667 8.83301 45.834 26.5 63.501s38.834 26.5 63.501 26.5s45.5 -8.83301 62.5 -26.5s25.5 -38.834 25.5 -63.501c0 -25.333 -8.5 -46.666 -25.5 -63.999s-37.833 -26 -62.5 -26s-45.834 8.66699 -63.501 26s-26.5 38.666 -26.5 63.999z" />
    <glyph glyph-name="copyright" unicode="&#xa9;" horiz-adv-x="1706" 
d="M1073 915c-12 53.333 -37 94.667 -75 124s-85.333 44 -142 44c-81.333 0 -144.666 -31.667 -189.999 -95s-68 -152.333 -68 -267c0 -110.667 23 -197.334 69 -260.001s109 -94 189 -94c59.333 0 109.666 16.833 150.999 50.5s67.333 79.5 78 137.5h115
c-7.33301 -83.333 -43.5 -151.666 -108.5 -204.999s-145.5 -80 -241.5 -80c-118 0 -211 40.667 -279 122s-102 193 -102 335c0 135.333 35.833 244 107.5 326s166.167 123 283.5 123c90 0 165.5 -24 226.5 -72s95.5 -111 103.5 -189h-117zM1505 723.001
c0 88 -16.1689 171.668 -48.502 251.001s-78.833 149.333 -139.5 210c-62.667 62.667 -133.667 110.334 -213 143.001s-163.333 49 -252 49c-88 0 -171 -16 -249 -48s-147.333 -78.667 -208 -140c-62.667 -64 -110.667 -135.833 -144 -215.5s-50 -162.834 -50 -249.501
c0 -86 16.5 -168.333 49.5 -247s80.5 -149.334 142.5 -212.001c62.667 -62 133.334 -109.5 212.001 -142.5s161 -49.5 247 -49.5c86.667 0 170.167 16.667 250.5 50s152.5 81.333 216.5 144c60.667 59.333 106.834 128 138.501 206s47.5 161.667 47.5 251zM851.998 1456
c99.333 0 193.835 -18.5 283.502 -55.5s169.167 -90.167 238.5 -159.5c68 -68 120.167 -146.5 156.5 -235.5s54.5 -183.167 54.5 -282.5c0 -100 -17.833 -193.667 -53.5 -281s-88.167 -165 -157.5 -233c-71.333 -70.667 -152 -124.834 -242 -162.501
s-183.333 -56.5 -280 -56.5s-189.334 18.5 -278.001 55.5s-168 90.833 -238 161.5c-70 69.333 -123.333 148.333 -160 237s-55 181.667 -55 279c0 96.667 18.833 189.834 56.5 279.501s91.834 170.5 162.501 242.5c67.333 68.667 144.666 121 231.999 157
s180.666 54 279.999 54z" />
    <glyph glyph-name="ordfeminine" unicode="&#xaa;" horiz-adv-x="606" 
d="M193 616h219l-109 197zM-12 418l286 512h56l288 -512h-94l-73 131h-297l-72 -131h-94z" />
    <glyph glyph-name="guillemotleft" unicode="&#xab;" horiz-adv-x="829" 
d="M371 84l-324 242v198l324 244v-145l-254 -197l254 -201v-141zM780 84l-323 242v198l323 244v-145l-254 -197l254 -201v-141z" />
    <glyph glyph-name="logicalnot" unicode="&#xac;" horiz-adv-x="1706" 
d="M1452 858v-502h-96v402h-1102v100h1198z" />
    <glyph glyph-name="sfthyphen" unicode="&#xad;" horiz-adv-x="526" 
d="M47 610h432v-121h-432v121z" />
    <glyph glyph-name="registered" unicode="&#xae;" horiz-adv-x="1706" 
d="M850 1071l-158 0.00195312v-303h158c89.333 0 152 11.167 188 33.5s54 60.166 54 113.499c0 55.333 -19 95.166 -57 119.499s-99.667 36.5 -185 36.5zM874 1157c118.667 0 206.5 -19 263.5 -57s85.5 -96.667 85.5 -176c0 -59.333 -18 -109 -54 -149
s-84.333 -64.333 -145 -73l188 -389h-145l-178 371h-197v-371h-127v844h309zM1505 721.002c0 89.333 -16 173.669 -48 253.002s-78 149.333 -138 210c-62.667 62 -133.834 109.5 -213.501 142.5s-164.167 49.5 -253.5 49.5c-86.667 0 -168.834 -16 -246.501 -48
s-147.167 -78.667 -208.5 -140c-63.333 -64.667 -111.833 -136.834 -145.5 -216.501s-50.5 -162.5 -50.5 -248.5s16.5 -168.333 49.5 -247s80.5 -149.334 142.5 -212.001c62.667 -62 133.334 -109.5 212.001 -142.5s161 -49.5 247 -49.5c86.667 0 170.167 16.667 250.5 50
s152.5 81.333 216.5 144c60.667 59.333 106.834 127.5 138.501 204.5s47.5 160.5 47.5 250.5zM852 1456c101.333 0 196.5 -18.3311 285.5 -54.998s167.833 -90 236.5 -160c68 -68 120.167 -146.5 156.5 -235.5s54.5 -183.167 54.5 -282.5
c0 -100 -17.833 -193.667 -53.5 -281s-88.167 -165 -157.5 -233c-71.333 -70.667 -152 -124.834 -242 -162.501s-183.333 -56.5 -280 -56.5c-98 0 -191.167 18.5 -279.5 55.5s-167.166 90.833 -236.499 161.5c-70 69.333 -123.333 148.333 -160 237s-55 181.667 -55 279
c0 96 18.833 189.167 56.5 279.5s91.834 171.166 162.501 242.499c67.333 68.667 144.666 121 231.999 157s180.666 54 279.999 54z" />
    <glyph glyph-name="macron" unicode="&#xaf;" 
d="M256 1087v117h512v-117h-512z" />
    <glyph glyph-name="degree" unicode="&#xb0;" horiz-adv-x="674" 
d="M545 1174c0 57.333 -20.168 106.333 -60.501 147s-89.166 61 -146.499 61s-106.5 -20.333 -147.5 -61s-61.5 -89.667 -61.5 -147c0 -58 20.333 -107 61 -147s90 -60 148 -60s107 20 147 60s60 89 60 147zM337.999 1452c76.667 0 141.834 -27.166 195.501 -81.499
s80.5 -119.833 80.5 -196.5s-27.167 -142.334 -81.5 -197.001s-119.833 -82 -196.5 -82c-78 0 -143.667 27 -197 81s-80 120 -80 198c0 77.333 27.167 143 81.5 197s120.166 81 197.499 81z" />
    <glyph glyph-name="plusminus" unicode="&#xb1;" horiz-adv-x="1706" 
d="M1452 150v-99h-1198v99h1198zM903 1169v-348h549v-98h-549v-348h-98v348h-551v98h551v348h98z" />
    <glyph glyph-name="twosuperior" unicode="&#xb2;" horiz-adv-x="901" 
d="M158 418c0 20.667 -0.666016 42.668 -1.99902 66.001v12c0 68 15.167 120 45.5 156s83.166 65.667 158.499 89c27.333 9.33301 64.333 21 111 35c132.667 40 199 77 199 111c0 28 -16.167 51.333 -48.5 70s-73.5 28 -123.5 28c-44 0 -88.833 -8 -134.5 -24
s-94.5 -40.667 -146.5 -74l-55 63c55.333 38.667 109.666 67.167 162.999 85.5s108 27.5 164 27.5c80.667 0 146.667 -16.833 198 -50.5s77 -75.5 77 -125.5c0 -68.667 -82.667 -128.334 -248 -179.001c-16 -5.33301 -28.333 -9.33301 -37 -12
c-103.333 -30.667 -167.666 -57 -192.999 -79s-38 -52.333 -38 -91c0 -8 0.166992 -14.333 0.5 -19s0.833008 -9 1.5 -13h528v-76h-620z" />
    <glyph glyph-name="threesuperior" unicode="&#xb3;" horiz-adv-x="901" 
d="M133 610c58 -48 112.833 -82.166 164.5 -102.499s108.834 -30.5 171.501 -30.5c76.667 0 139.834 13.333 189.501 40s74.5 59 74.5 97s-19.167 66.333 -57.5 85s-96.166 28 -173.499 28h-31v75c5.33301 0 11.333 -0.166992 18 -0.5s15.667 -0.5 27 -0.5
c57.333 0 99 6.83301 125 20.5s39 35.5 39 65.5c0 28.667 -16.167 52.167 -48.5 70.5s-74.833 27.5 -127.5 27.5c-48.667 0 -96.334 -7.5 -143.001 -22.5s-93.334 -38.167 -140.001 -69.5l-55 68c49.333 33.333 102.833 58.666 160.5 75.999s118.167 26 181.5 26
c81.333 0 146 -16 194 -48s72 -74.667 72 -128c0 -24 -5.33301 -45.833 -16 -65.5s-26.334 -36.834 -47.001 -51.501c38 -15.333 66.833 -36.166 86.5 -62.499s29.5 -56.833 29.5 -91.5c0 -59.333 -33.333 -110 -100 -152s-150.667 -63 -252 -63
c-82 0 -155 11.833 -219 35.5s-123.333 60.5 -178 110.5z" />
    <glyph glyph-name="acute" unicode="&#xb4;" 
d="M479 987h-92l209 350h152z" />
    <glyph glyph-name="mu" unicode="&#xb5;" horiz-adv-x="1110" 
d="M344 1065l-125 -592.002c-5.33301 -26 -9.33301 -50.333 -12 -73s-4 -44.667 -4 -66c0 -78 19.333 -138.167 58 -180.5s94.334 -63.5 167.001 -63.5c83.333 0 155 35.833 215 107.5s104.333 175.167 133 310.5l121 557h139l-164 -770c-8 -36.667 -13.667 -65 -17 -85
s-5 -36 -5 -48c0 -22 5.66699 -38.5 17 -49.5s28.333 -16.5 51 -16.5c4.66699 0 10.167 0.166992 16.5 0.5s12.833 0.833008 19.5 1.5l-20 -110c-12.667 -3.33301 -26.334 -6 -41.001 -8s-29.667 -3 -45 -3c-46.667 0 -81.167 12 -103.5 36s-33.5 60.667 -33.5 110v14
c-28 -51.333 -68 -91.166 -120 -119.499s-111.667 -42.5 -179 -42.5c-61.333 0 -115 13.333 -161 40s-82 65.334 -108 116.001l-114 -557h-140l316 1491h139z" />
    <glyph glyph-name="paragraph" unicode="&#xb6;" 
d="M940 1409h-127.001v-1409h-82v1409h-186v-1409h-84v782c-116 5.33301 -207.833 39.5 -275.5 102.5s-101.5 144.833 -101.5 245.5c0 104.667 35.833 189 107.5 253s166.834 96 285.501 96h463v-70z" />
    <glyph glyph-name="periodcentered" unicode="&#xb7;" horiz-adv-x="682" 
d="M256 535c0 24 7.99902 44.333 23.999 61s36 25 60 25s44.667 -8.5 62 -25.5s26 -37.167 26 -60.5c0 -24 -8.5 -44.333 -25.5 -61s-37.833 -25 -62.5 -25c-23.333 0 -43.166 8.33301 -59.499 25s-24.5 37 -24.5 61z" />
    <glyph glyph-name="cedilla" unicode="&#xb8;" 
d="M272 -418l-0.000976562 76c63.333 -13.333 112 -22.5 146 -27.5s64 -7.5 90 -7.5c42.667 0 75.167 7.66699 97.5 23s33.5 37.666 33.5 66.999c0 36.667 -11.5 63.334 -34.5 80.001s-59.167 25 -108.5 25c-12.667 0 -22.167 -0.166992 -28.5 -0.5
s-12.5 -0.833008 -18.5 -1.5v184h63v-111h20c70.667 0 124.667 -14.667 162 -44s56 -72 56 -128c0 -56.667 -19.333 -100.167 -58 -130.5s-94.667 -45.5 -168 -45.5c-36 0 -73.167 3 -111.5 9s-85.166 16.667 -140.499 32z" />
    <glyph glyph-name="onesuperior" unicode="&#xb9;" horiz-adv-x="901" 
d="M403 414v637h93v-637h-93z" />
    <glyph glyph-name="ordmasculine" unicode="&#xba;" horiz-adv-x="784" 
d="M391 477c76 0 137.667 18.5 185 55.5s71 84.167 71 141.5c0 56.667 -23.833 103.5 -71.5 140.5s-109.167 55.5 -184.5 55.5c-74.667 0 -135.667 -18.5 -183 -55.5s-71 -83.833 -71 -140.5c0 -57.333 23.667 -104.5 71 -141.5s108.333 -55.5 183 -55.5zM391 401
c-100 0 -182.333 25.832 -247 77.499s-97 116.834 -97 195.501c0 78 32.167 142.5 96.5 193.5s146.833 76.5 247.5 76.5c102 0 185.167 -25.333 249.5 -76s96.5 -115.334 96.5 -194.001c0 -79.333 -32.167 -144.666 -96.5 -195.999s-147.5 -77 -249.5 -77z" />
    <glyph glyph-name="guillemotright" unicode="&#xbb;" horiz-adv-x="829" 
d="M461 84v141l252 201l-252 197v145l321 -244v-198zM49 84v141l254 201l-254 197v145l324 -244v-198z" />
    <glyph glyph-name="onequarter" unicode="&#xbc;" horiz-adv-x="2062" 
d="M1407 215h397v279zM1804 0v141h-530v74l530 373h86v-373h111v-74h-111v-141h-86zM1405 1073h137l-885 -1102h-139zM385 455v594h88v-594h-88z" />
    <glyph glyph-name="onehalf" unicode="&#xbd;" horiz-adv-x="2062" 
d="M1354 0c-0.666992 12.667 -1.5 27.335 -2.5 44.002s-1.5 26.667 -1.5 30c0 62 14.667 109.833 44 143.5s80 61.5 152 83.5l103 32c128 38 192 73 192 105c0 26.667 -15.333 48.667 -46 66s-70 26 -118 26c-41.333 0 -83.833 -7.33301 -127.5 -22s-90.5 -38 -140.5 -70
l-51 60c50.667 35.333 101.5 61.5 152.5 78.5s103.833 25.5 158.5 25.5c77.333 0 140.333 -15.667 189 -47s73 -71 73 -119c0 -63.333 -82 -119.333 -246 -168c-11.333 -3.33301 -20 -6 -26 -8c-100 -30 -161.833 -55.333 -185.5 -76s-35.5 -48.667 -35.5 -84
c0 -2.66699 0.166992 -5.83398 0.5 -9.50098s1.5 -9.83398 3.5 -18.501h502v-72h-590zM1405 1073h137l-885 -1102h-139zM385 455.001v594h88v-594h-88z" />
    <glyph glyph-name="threequarters" unicode="&#xbe;" horiz-adv-x="2062" 
d="M1407 215h397v279zM1804 0v141h-530v74l530 373h86v-373h111v-74h-111v-141h-86zM1405 1073h137l-885 -1102h-139zM127 637c54.667 -44 106.999 -75.498 156.999 -94.498s105 -28.5 165 -28.5c72 0 131.5 12.5 178.5 37.5s70.5 55.5 70.5 91.5
c0 35.333 -18.167 61.666 -54.5 78.999s-91.166 26 -164.499 26h-30v69h45c53.333 0 92.5 6.33301 117.5 19s37.5 32.334 37.5 59.001c0 28 -15.333 50.667 -46 68s-72 26 -124 26c-45.333 0 -90.166 -7 -134.499 -21s-88.833 -35.667 -133.5 -65l-53 64
c47.333 30.667 98.666 54 153.999 70s112.333 24 171 24c78 0 139.833 -15 185.5 -45s68.5 -70.333 68.5 -121c0 -22 -4.83301 -41.833 -14.5 -59.5s-24.5 -34.167 -44.5 -49.5c37.333 -14 65.5 -32.833 84.5 -56.5s28.5 -51.834 28.5 -84.501
c0 -56.667 -32 -104.667 -96 -144s-144.667 -59 -242 -59c-77.333 0 -146.5 11.167 -207.5 33.5s-118.167 57.166 -171.5 104.499z" />
    <glyph glyph-name="questiondown" unicode="&#xbf;" horiz-adv-x="739" 
d="M483 831l-0.000976562 -178c0 -32.667 -5.16699 -61.5 -15.5 -86.5s-33.166 -54.833 -68.499 -89.5l-170 -170c-13.333 -13.333 -22.666 -26.5 -27.999 -39.5s-8 -29.167 -8 -48.5c0 -36 14.667 -65.5 44 -88.5s67.666 -34.5 114.999 -34.5
c54.667 0 99.667 13.333 135 40s58.666 64.667 69.999 114l127 -47c-20.667 -77.333 -58.667 -135.333 -114 -174s-128 -58 -218 -58c-92 0 -164.833 23.5 -218.5 70.5s-80.5 110.167 -80.5 189.5c0 31.333 6.33301 60.5 19 87.5s32.334 53.167 59.001 78.5l174 170
c14 14 24.333 31 31 51s10 43.333 10 70v143h137zM411.999 946c-24 0 -44 8.83301 -60 26.5s-24 39.5 -24 65.5c0 26.667 8 48.334 24 65.001s36 25 60 25c23.333 0 43.166 -8.33301 59.499 -25s24.5 -38.334 24.5 -65.001c0 -26 -8.16699 -47.833 -24.5 -65.5
s-36.166 -26.5 -59.499 -26.5z" />
    <glyph glyph-name="Agrave" unicode="&#xc0;" horiz-adv-x="1204" 
d="M356 426h486l-244 489zM0 0l541 1104h114l547 -1104h-149l-150 297h-610l-146 -297h-147zM635 1239l-269 350h152l209 -350h-92z" />
    <glyph glyph-name="Aacute" unicode="&#xc1;" horiz-adv-x="1204" 
d="M356 426h486l-244 489zM0 0l541 1104h114l547 -1104h-149l-150 297h-610l-146 -297h-147zM569 1239h-92l209 350h152z" />
    <glyph glyph-name="Acircumflex" unicode="&#xc2;" horiz-adv-x="1204" 
d="M356 426h486l-244 489zM0 0l541 1104h114l547 -1104h-149l-150 297h-610l-146 -297h-147zM326 1239l200 350h152l200 -350h-92l-184 264l-184 -264h-92z" />
    <glyph glyph-name="Atilde" unicode="&#xc3;" horiz-adv-x="1204" 
d="M356 426h486l-244 489zM0 0l541 1104h114l547 -1104h-149l-150 297h-610l-146 -297h-147zM891 1503c-17.333 -60.667 -41.999 -106.167 -73.999 -136.5s-71 -45.5 -117 -45.5c-8.66699 0 -18.5 0.833008 -29.5 2.5s-22.833 4.16699 -35.5 7.5l-97 31
c-10.667 3.33301 -19.834 5.5 -27.501 6.5s-16.167 1.5 -25.5 1.5c-19.333 0 -37 -6.16699 -53 -18.5s-29 -29.833 -39 -52.5h-80c14.667 58.667 38.667 103.667 72 135s74.333 47 123 47c10.667 0 20.334 -0.666992 29.001 -2s16.667 -3.33301 24 -6l96 -31
c10.667 -4 21 -7 31 -9s18.333 -3 25 -3c21.333 0 39.666 5.83301 54.999 17.5s29 30.167 41 55.5h82z" />
    <glyph glyph-name="Adieresis" unicode="&#xc4;" horiz-adv-x="1204" 
d="M356 426h486l-244 489zM0 0l541 1104h114l547 -1104h-149l-150 297h-610l-146 -297h-147zM674 1399c0 24.667 8.5 45.834 25.5 63.501s37.833 26.5 62.5 26.5s45.834 -8.83301 63.501 -26.5s26.5 -38.834 26.5 -63.501c0 -25.333 -8.83301 -46.666 -26.5 -63.999
s-38.834 -26 -63.501 -26s-45.5 8.66699 -62.5 26s-25.5 38.666 -25.5 63.999zM352 1399c0 24.667 8.83301 45.834 26.5 63.501s38.834 26.5 63.501 26.5s45.5 -8.83301 62.5 -26.5s25.5 -38.834 25.5 -63.501c0 -25.333 -8.5 -46.666 -25.5 -63.999s-37.833 -26 -62.5 -26
s-45.834 8.66699 -63.501 26s-26.5 38.666 -26.5 63.999z" />
    <glyph glyph-name="Aring" unicode="&#xc5;" horiz-adv-x="1204" 
d="M449 1456c0 -42 14.667 -77.666 44 -106.999s65 -44 107 -44c41.333 0 76.666 14.667 105.999 44s44 65 44 107c0 41.333 -14.667 76.666 -44 105.999s-64.666 44 -105.999 44c-42 0 -77.667 -14.5 -107 -43.5s-44 -64.5 -44 -106.5zM358 1456
c0 66.667 23.5 123.334 70.5 170.001s104.167 70 171.5 70c66.667 0 123.334 -23.333 170.001 -70s70 -103.334 70 -170.001s-23.333 -123.667 -70 -171s-103.334 -71 -170.001 -71c-67.333 0 -124.5 23.667 -171.5 71s-70.5 104.333 -70.5 171zM356 426.001h486l-244 489z
M0 0.000976562l541 1104h114l547 -1104h-149l-150 297h-610l-146 -297h-147z" />
    <glyph glyph-name="AE" unicode="&#xc6;" horiz-adv-x="1759" 
d="M848 0v297h-580l-174 -297h-145l641 1104h1126v-127h-731v-324h445v-127h-445v-399h778v-127h-915zM340 426h508v551h-186z" />
    <glyph glyph-name="Ccedilla" unicode="&#xc7;" horiz-adv-x="1237" 
d="M1047 352l110 -82c-50.667 -96 -120 -169.833 -208 -221.5s-188 -77.5 -300 -77.5c-165.333 0 -301.833 54.5 -409.5 163.5s-161.5 247.167 -161.5 414.5c0 168 54 306.5 162 415.5s244.333 163.5 409 163.5c102 0 195 -22.333 279 -67s152.333 -108.334 205 -191.001
l-115 -82c-34.667 66 -84.667 117.667 -150 155s-138.333 56 -219 56c-124 0 -226.667 -42.5 -308 -127.5s-122 -192.5 -122 -322.5s40.667 -237.333 122 -322s184 -127 308 -127c86.667 0 163.667 21.333 231 64s123 105.334 167 188.001zM405 -418l-0.000976562 76
c63.333 -13.333 112 -22.5 146 -27.5s64 -7.5 90 -7.5c42.667 0 75.167 7.66699 97.5 23s33.5 37.666 33.5 66.999c0 36.667 -11.5 63.334 -34.5 80.001s-59.167 25 -108.5 25c-12.667 0 -22.167 -0.166992 -28.5 -0.5s-12.5 -0.833008 -18.5 -1.5v184h63v-111h20
c70.667 0 124.667 -14.667 162 -44s56 -72 56 -128c0 -56.667 -19.333 -100.167 -58 -130.5s-94.667 -45.5 -168 -45.5c-36 0 -73.167 3 -111.5 9s-85.166 16.667 -140.499 32z" />
    <glyph glyph-name="Egrave" unicode="&#xc8;" horiz-adv-x="1118" 
d="M166 0v1104h868v-127h-731v-324h442v-127h-442v-399h776v-127h-913zM649 1239l-269 350h152l209 -350h-92z" />
    <glyph glyph-name="Eacute" unicode="&#xc9;" horiz-adv-x="1118" 
d="M166 0v1104h868v-127h-731v-324h442v-127h-442v-399h776v-127h-913zM583 1239h-92l209 350h152z" />
    <glyph glyph-name="Ecircumflex" unicode="&#xca;" horiz-adv-x="1118" 
d="M166 0v1104h868v-127h-731v-324h442v-127h-442v-399h776v-127h-913zM340 1239l200 350h152l200 -350h-92l-184 264l-184 -264h-92z" />
    <glyph glyph-name="Edieresis" unicode="&#xcb;" horiz-adv-x="1118" 
d="M166 0v1104h868v-127h-731v-324h442v-127h-442v-399h776v-127h-913zM688 1399c0 24.667 8.5 45.834 25.5 63.501s37.833 26.5 62.5 26.5s45.834 -8.83301 63.501 -26.5s26.5 -38.834 26.5 -63.501c0 -25.333 -8.83301 -46.666 -26.5 -63.999s-38.834 -26 -63.501 -26
s-45.5 8.66699 -62.5 26s-25.5 38.666 -25.5 63.999zM366 1399c0 24.667 8.83301 45.834 26.5 63.501s38.834 26.5 63.501 26.5s45.5 -8.83301 62.5 -26.5s25.5 -38.834 25.5 -63.501c0 -25.333 -8.5 -46.666 -25.5 -63.999s-37.833 -26 -62.5 -26
s-45.834 8.66699 -63.501 26s-26.5 38.666 -26.5 63.999z" />
    <glyph glyph-name="Igrave" unicode="&#xcc;" horiz-adv-x="473" 
d="M168 0v1110h139v-1110h-139zM271 1239l-269 350h152l209 -350h-92z" />
    <glyph glyph-name="Iacute" unicode="&#xcd;" horiz-adv-x="473" 
d="M168 0v1110h139v-1110h-139zM205 1239h-92l209 350h152z" />
    <glyph glyph-name="Icircumflex" unicode="&#xce;" horiz-adv-x="473" 
d="M168 0v1110h139v-1110h-139zM-38 1239l200 350h152l200 -350h-92l-184 264l-184 -264h-92z" />
    <glyph glyph-name="Idieresis" unicode="&#xcf;" horiz-adv-x="473" 
d="M168 0v1110h139v-1110h-139zM310 1399c0 24.667 8.5 45.834 25.5 63.501s37.833 26.5 62.5 26.5s45.834 -8.83301 63.501 -26.5s26.5 -38.834 26.5 -63.501c0 -25.333 -8.83301 -46.666 -26.5 -63.999s-38.834 -26 -63.501 -26s-45.5 8.66699 -62.5 26
s-25.5 38.666 -25.5 63.999zM-12 1399c0 24.667 8.83301 45.834 26.5 63.501s38.834 26.5 63.501 26.5s45.5 -8.83301 62.5 -26.5s25.5 -38.834 25.5 -63.501c0 -25.333 -8.5 -46.666 -25.5 -63.999s-37.833 -26 -62.5 -26s-45.834 8.66699 -63.501 26
s-26.5 38.666 -26.5 63.999z" />
    <glyph glyph-name="Eth" unicode="&#xd0;" horiz-adv-x="1370" 
d="M713 977h-335.999v-315h387v-115h-387v-420h336c136 0 243 38.167 321 114.5s117 179.5 117 309.5c0 128 -39.833 231 -119.5 309s-185.834 117 -318.501 117zM713.001 1104c173.333 0 313.168 -51.332 419.501 -153.999s159.5 -236.334 159.5 -401.001
c0 -166 -52.333 -299 -157 -399s-245.334 -150 -422.001 -150h-473v547h-238v115h238v442h473z" />
    <glyph glyph-name="Ntilde" unicode="&#xd1;" horiz-adv-x="1255" 
d="M166 0v1104h72l716 -825v825h138v-1104h-70l-719 825v-825h-137zM918 1503c-17.333 -60.667 -41.999 -106.167 -73.999 -136.5s-71 -45.5 -117 -45.5c-8.66699 0 -18.5 0.833008 -29.5 2.5s-22.833 4.16699 -35.5 7.5l-97 31c-10.667 3.33301 -19.834 5.5 -27.501 6.5
s-16.167 1.5 -25.5 1.5c-19.333 0 -37 -6.16699 -53 -18.5s-29 -29.833 -39 -52.5h-80c14.667 58.667 38.667 103.667 72 135s74.333 47 123 47c10.667 0 20.334 -0.666992 29.001 -2s16.667 -3.33301 24 -6l96 -31c10.667 -4 21 -7 31 -9s18.333 -3 25 -3
c21.333 0 39.666 5.83301 54.999 17.5s29 30.167 41 55.5h82z" />
    <glyph glyph-name="Ograve" unicode="&#xd2;" horiz-adv-x="1298" 
d="M649 100c124 0 226.667 42.332 308 126.999s122 192 122 322c0 130.667 -40.5 238.334 -121.5 323.001s-183.833 127 -308.5 127c-124 0 -226.667 -42.5 -308 -127.5s-122 -192.5 -122 -322.5s40.667 -237.333 122 -322s184 -127 308 -127zM649 -29.001
c-165.333 0 -301.833 54.499 -409.5 163.499s-161.5 247.167 -161.5 414.5c0 168 54 306.5 162 415.5s244.333 163.5 409 163.5c165.333 0 302.333 -54.667 411 -164s163 -247.666 163 -414.999s-54.167 -305.5 -162.5 -414.5s-245.5 -163.5 -411.5 -163.5zM682 1239
l-269 350h152l209 -350h-92z" />
    <glyph glyph-name="Oacute" unicode="&#xd3;" horiz-adv-x="1298" 
d="M649 100c124 0 226.667 42.332 308 126.999s122 192 122 322c0 130.667 -40.5 238.334 -121.5 323.001s-183.833 127 -308.5 127c-124 0 -226.667 -42.5 -308 -127.5s-122 -192.5 -122 -322.5s40.667 -237.333 122 -322s184 -127 308 -127zM649 -29.001
c-165.333 0 -301.833 54.499 -409.5 163.499s-161.5 247.167 -161.5 414.5c0 168 54 306.5 162 415.5s244.333 163.5 409 163.5c165.333 0 302.333 -54.667 411 -164s163 -247.666 163 -414.999s-54.167 -305.5 -162.5 -414.5s-245.5 -163.5 -411.5 -163.5zM616 1239h-92
l209 350h152z" />
    <glyph glyph-name="Ocircumflex" unicode="&#xd4;" horiz-adv-x="1298" 
d="M649 100c124 0 226.667 42.332 308 126.999s122 192 122 322c0 130.667 -40.5 238.334 -121.5 323.001s-183.833 127 -308.5 127c-124 0 -226.667 -42.5 -308 -127.5s-122 -192.5 -122 -322.5s40.667 -237.333 122 -322s184 -127 308 -127zM649 -29.001
c-165.333 0 -301.833 54.499 -409.5 163.499s-161.5 247.167 -161.5 414.5c0 168 54 306.5 162 415.5s244.333 163.5 409 163.5c165.333 0 302.333 -54.667 411 -164s163 -247.666 163 -414.999s-54.167 -305.5 -162.5 -414.5s-245.5 -163.5 -411.5 -163.5zM373 1239
l200 350h152l200 -350h-92l-184 264l-184 -264h-92z" />
    <glyph glyph-name="Otilde" unicode="&#xd5;" horiz-adv-x="1298" 
d="M649 100c124 0 226.667 42.332 308 126.999s122 192 122 322c0 130.667 -40.5 238.334 -121.5 323.001s-183.833 127 -308.5 127c-124 0 -226.667 -42.5 -308 -127.5s-122 -192.5 -122 -322.5s40.667 -237.333 122 -322s184 -127 308 -127zM649 -29.001
c-165.333 0 -301.833 54.499 -409.5 163.499s-161.5 247.167 -161.5 414.5c0 168 54 306.5 162 415.5s244.333 163.5 409 163.5c165.333 0 302.333 -54.667 411 -164s163 -247.666 163 -414.999s-54.167 -305.5 -162.5 -414.5s-245.5 -163.5 -411.5 -163.5zM938 1503
c-17.333 -60.667 -41.999 -106.167 -73.999 -136.5s-71 -45.5 -117 -45.5c-8.66699 0 -18.5 0.833008 -29.5 2.5s-22.833 4.16699 -35.5 7.5l-97 31c-10.667 3.33301 -19.834 5.5 -27.501 6.5s-16.167 1.5 -25.5 1.5c-19.333 0 -37 -6.16699 -53 -18.5
s-29 -29.833 -39 -52.5h-80c14.667 58.667 38.667 103.667 72 135s74.333 47 123 47c10.667 0 20.334 -0.666992 29.001 -2s16.667 -3.33301 24 -6l96 -31c10.667 -4 21 -7 31 -9s18.333 -3 25 -3c21.333 0 39.666 5.83301 54.999 17.5s29 30.167 41 55.5h82z" />
    <glyph glyph-name="Odieresis" unicode="&#xd6;" horiz-adv-x="1298" 
d="M649 100c124 0 226.667 42.332 308 126.999s122 192 122 322c0 130.667 -40.5 238.334 -121.5 323.001s-183.833 127 -308.5 127c-124 0 -226.667 -42.5 -308 -127.5s-122 -192.5 -122 -322.5s40.667 -237.333 122 -322s184 -127 308 -127zM649 -29.001
c-165.333 0 -301.833 54.499 -409.5 163.499s-161.5 247.167 -161.5 414.5c0 168 54 306.5 162 415.5s244.333 163.5 409 163.5c165.333 0 302.333 -54.667 411 -164s163 -247.666 163 -414.999s-54.167 -305.5 -162.5 -414.5s-245.5 -163.5 -411.5 -163.5zM721 1399
c0 24.667 8.5 45.834 25.5 63.501s37.833 26.5 62.5 26.5s45.834 -8.83301 63.501 -26.5s26.5 -38.834 26.5 -63.501c0 -25.333 -8.83301 -46.666 -26.5 -63.999s-38.834 -26 -63.501 -26s-45.5 8.66699 -62.5 26s-25.5 38.666 -25.5 63.999zM399 1399
c0 24.667 8.83301 45.834 26.5 63.501s38.834 26.5 63.501 26.5s45.5 -8.83301 62.5 -26.5s25.5 -38.834 25.5 -63.501c0 -25.333 -8.5 -46.666 -25.5 -63.999s-37.833 -26 -62.5 -26s-45.834 8.66699 -63.501 26s-26.5 38.666 -26.5 63.999z" />
    <glyph glyph-name="multiply" unicode="&#xd7;" horiz-adv-x="1706" 
d="M856 680l481 481l70 -69l-481 -482l481 -481l-70 -70l-481 482l-481 -482l-70 70l481 481l-481 482l70 69z" />
    <glyph glyph-name="Oslash" unicode="&#xd8;" horiz-adv-x="1298" 
d="M1004 1157h156.999l-123 -174c59.333 -52 105 -115.5 137 -190.5s48 -156.167 48 -243.5c0 -167.333 -54.167 -305.5 -162.5 -414.5s-245.5 -163.5 -411.5 -163.5c-51.333 0 -100.166 5.83301 -146.499 17.5s-92.166 29.834 -137.499 54.501l-70 -100h-158l123 174
c-58.667 51.333 -103.667 114.166 -135 188.499s-47 155.5 -47 243.5c0 168 54 306.5 162 415.5s244.333 163.5 409 163.5c51.333 0 100.166 -5.66699 146.499 -17s92.5 -29.333 138.5 -54zM341.999 227l516 720.999c-35.333 18 -69.833 31 -103.5 39
s-68.834 12 -105.501 12c-124 0 -226.667 -42.5 -308 -127.5s-122 -192.5 -122 -322.5c0 -62.667 9.83301 -119.667 29.5 -171s50.834 -101.666 93.501 -150.999zM957.999 869.999l-518 -719.999c34 -17.333 67.833 -30 101.5 -38s69.5 -12 107.5 -12
c124 0 226.667 42.333 308 127s122 192 122 322c0 63.333 -9.83301 121.166 -29.5 173.499s-50.167 101.5 -91.5 147.5z" />
    <glyph glyph-name="Ugrave" unicode="&#xd9;" horiz-adv-x="1186" 
d="M274 1104v-715c0 -114.667 21.5 -191.5 64.5 -230.5s127.5 -58.5 253.5 -58.5s210.333 19.5 253 58.5s64 115.833 64 230.5v715h138v-752c0 -136 -35.333 -233.5 -106 -292.5s-187 -88.5 -349 -88.5s-278.333 29.5 -349 88.5s-106 156.5 -106 292.5v752h137zM627 1239
l-269 350h152l209 -350h-92z" />
    <glyph glyph-name="Uacute" unicode="&#xda;" horiz-adv-x="1186" 
d="M274 1104v-715c0 -114.667 21.5 -191.5 64.5 -230.5s127.5 -58.5 253.5 -58.5s210.333 19.5 253 58.5s64 115.833 64 230.5v715h138v-752c0 -136 -35.333 -233.5 -106 -292.5s-187 -88.5 -349 -88.5s-278.333 29.5 -349 88.5s-106 156.5 -106 292.5v752h137zM561 1239
h-92l209 350h152z" />
    <glyph glyph-name="Ucircumflex" unicode="&#xdb;" horiz-adv-x="1186" 
d="M274 1104v-715c0 -114.667 21.5 -191.5 64.5 -230.5s127.5 -58.5 253.5 -58.5s210.333 19.5 253 58.5s64 115.833 64 230.5v715h138v-752c0 -136 -35.333 -233.5 -106 -292.5s-187 -88.5 -349 -88.5s-278.333 29.5 -349 88.5s-106 156.5 -106 292.5v752h137zM318 1239
l200 350h152l200 -350h-92l-184 264l-184 -264h-92z" />
    <glyph glyph-name="Udieresis" unicode="&#xdc;" horiz-adv-x="1186" 
d="M274 1104v-715c0 -114.667 21.5 -191.5 64.5 -230.5s127.5 -58.5 253.5 -58.5s210.333 19.5 253 58.5s64 115.833 64 230.5v715h138v-752c0 -136 -35.333 -233.5 -106 -292.5s-187 -88.5 -349 -88.5s-278.333 29.5 -349 88.5s-106 156.5 -106 292.5v752h137zM666 1399
c0 24.667 8.5 45.834 25.5 63.501s37.833 26.5 62.5 26.5s45.834 -8.83301 63.501 -26.5s26.5 -38.834 26.5 -63.501c0 -25.333 -8.83301 -46.666 -26.5 -63.999s-38.834 -26 -63.501 -26s-45.5 8.66699 -62.5 26s-25.5 38.666 -25.5 63.999zM344 1399
c0 24.667 8.83301 45.834 26.5 63.501s38.834 26.5 63.501 26.5s45.5 -8.83301 62.5 -26.5s25.5 -38.834 25.5 -63.501c0 -25.333 -8.5 -46.666 -25.5 -63.999s-37.833 -26 -62.5 -26s-45.834 8.66699 -63.501 26s-26.5 38.666 -26.5 63.999z" />
    <glyph glyph-name="Yacute" unicode="&#xdd;" horiz-adv-x="930" 
d="M395 0v553l-497 551h172l395 -436l393 436h174l-500 -553v-551h-137zM432 1239h-92l209 350h152z" />
    <glyph glyph-name="Thorn" unicode="&#xde;" horiz-adv-x="1200" 
d="M297 762l0.000976562 -366.999h487c68.667 0 121 15.667 157 47s54 76.666 54 135.999c0 58 -17.833 103.167 -53.5 135.5s-85.834 48.5 -150.501 48.5h-494zM160.001 1104h137v-215h496c108 0 192.667 -27.167 254 -81.5s92 -129.5 92 -225.5
c0 -92.667 -30 -168.167 -90 -226.5s-139.333 -87.5 -238 -87.5h-514v-268h-137v1104z" />
    <glyph glyph-name="germandbls" unicode="&#xdf;" horiz-adv-x="2028" 
d="M72 109l65.001 112c58.667 -39.333 122.667 -70 192 -92s135.666 -33 198.999 -33c76 0 137.333 15.5 184 46.5s70 70.833 70 119.5s-21.333 84.834 -64 108.501s-110 36.834 -202 39.501c-155.333 2 -262 20 -320 54s-87 90.333 -87 169
c0 73.333 31.833 132.333 95.5 177s149.167 67 256.5 67c73.333 0 144.5 -10.333 213.5 -31s135.5 -51.334 199.5 -92.001l-67 -111c-53.333 36 -110.666 63.833 -171.999 83.5s-120 29.5 -176 29.5c-64.667 0 -116.667 -11.333 -156 -34s-59 -52.334 -59 -89.001
c0 -38 19.833 -65 59.5 -81s108.5 -24 206.5 -24c136 0 238.667 -23 308 -69s104 -114.333 104 -205c0 -80.667 -35.167 -147.667 -105.5 -201s-161.5 -80 -273.5 -80c-82.667 0 -164.834 11.833 -246.501 35.5s-156.5 57.167 -224.5 100.5zM1086 109l65.001 112
c58.667 -39.333 122.667 -70 192 -92s135.666 -33 198.999 -33c76 0 137.333 15.5 184 46.5s70 70.833 70 119.5s-21.333 84.834 -64 108.501s-110 36.834 -202 39.501c-155.333 2 -262 20 -320 54s-87 90.333 -87 169c0 73.333 31.833 132.333 95.5 177
s149.167 67 256.5 67c73.333 0 144.5 -10.333 213.5 -31s135.5 -51.334 199.5 -92.001l-67 -111c-53.333 36 -110.666 63.833 -171.999 83.5s-120 29.5 -176 29.5c-64.667 0 -116.667 -11.333 -156 -34s-59 -52.334 -59 -89.001c0 -38 19.833 -65 59.5 -81
s108.5 -24 206.5 -24c136 0 238.667 -23 308 -69s104 -114.333 104 -205c0 -80.667 -35.167 -147.667 -105.5 -201s-161.5 -80 -273.5 -80c-82.667 0 -164.834 11.833 -246.501 35.5s-156.5 57.167 -224.5 100.5z" />
    <glyph glyph-name="agrave" unicode="&#xe0;" horiz-adv-x="920" 
d="M291 330h334l-166 327zM-18 0l434 854h84l438 -854h-143l-111 217h-451l-110 -217h-141zM494 987l-269 350h152l209 -350h-92z" />
    <glyph glyph-name="aacute" unicode="&#xe1;" horiz-adv-x="920" 
d="M291 330h334l-166 327zM-18 0l434 854h84l438 -854h-143l-111 217h-451l-110 -217h-141zM428 987h-92l209 350h152z" />
    <glyph glyph-name="acircumflex" unicode="&#xe2;" horiz-adv-x="920" 
d="M291 330h334l-166 327zM-18 0l434 854h84l438 -854h-143l-111 217h-451l-110 -217h-141zM185 987l200 350h152l200 -350h-92l-184 264l-184 -264h-92z" />
    <glyph glyph-name="atilde" unicode="&#xe3;" horiz-adv-x="920" 
d="M291 330h334l-166 327zM-18 0l434 854h84l438 -854h-143l-111 217h-451l-110 -217h-141zM750 1251c-17.333 -60.667 -41.999 -106.167 -73.999 -136.5s-71 -45.5 -117 -45.5c-8.66699 0 -18.5 0.833008 -29.5 2.5s-22.833 4.16699 -35.5 7.5l-97 31
c-10.667 3.33301 -19.834 5.5 -27.501 6.5s-16.167 1.5 -25.5 1.5c-19.333 0 -37 -6.16699 -53 -18.5s-29 -29.833 -39 -52.5h-80c14.667 58.667 38.667 103.667 72 135s74.333 47 123 47c10.667 0 20.334 -0.666992 29.001 -2s16.667 -3.33301 24 -6l96 -31
c10.667 -4 21 -7 31 -9s18.333 -3 25 -3c21.333 0 39.666 5.83301 54.999 17.5s29 30.167 41 55.5h82z" />
    <glyph glyph-name="adieresis" unicode="&#xe4;" horiz-adv-x="920" 
d="M291 330h334l-166 327zM-18 0l434 854h84l438 -854h-143l-111 217h-451l-110 -217h-141zM533 1147c0 24.667 8.5 45.834 25.5 63.501s37.833 26.5 62.5 26.5s45.834 -8.83301 63.501 -26.5s26.5 -38.834 26.5 -63.501c0 -25.333 -8.83301 -46.666 -26.5 -63.999
s-38.834 -26 -63.501 -26s-45.5 8.66699 -62.5 26s-25.5 38.666 -25.5 63.999zM211 1147c0 24.667 8.83301 45.834 26.5 63.501s38.834 26.5 63.501 26.5s45.5 -8.83301 62.5 -26.5s25.5 -38.834 25.5 -63.501c0 -25.333 -8.5 -46.666 -25.5 -63.999s-37.833 -26 -62.5 -26
s-45.834 8.66699 -63.501 26s-26.5 38.666 -26.5 63.999z" />
    <glyph glyph-name="aring" unicode="&#xe5;" horiz-adv-x="920" 
d="M291 330h334l-166 327zM-18 0l434 854h84l438 -854h-143l-111 217h-451l-110 -217h-141zM311 1208c0 -42 14.5 -77.333 43.5 -106s64.5 -43 106.5 -43c41.333 0 77 14.5 107 43.5s45 64.167 45 105.5c0 42 -15 77.833 -45 107.5s-65.667 44.5 -107 44.5
c-42 0 -77.5 -14.667 -106.5 -44s-43.5 -65.333 -43.5 -108zM221 1210c0 67.333 23.1689 124.168 69.502 170.501s103.166 69.5 170.499 69.5c66.667 0 123.667 -23.333 171 -70s71 -103.334 71 -170.001c0 -66 -23.667 -122.667 -71 -170s-104.333 -71 -171 -71
s-123.334 23.5 -170.001 70.5s-70 103.833 -70 170.5z" />
    <glyph glyph-name="ae" unicode="&#xe6;" horiz-adv-x="1659" 
d="M322 330h454v399h-225zM252 217l-125 -217h-143l491 854h1106v-125h-672v-213h437v-123h-437v-270h705v-123h-838v217h-524z" />
    <glyph glyph-name="ccedilla" unicode="&#xe7;" horiz-adv-x="1128" 
d="M1049 209c-48.667 -76.667 -112.499 -135.168 -191.499 -175.501s-168.833 -60.5 -269.5 -60.5c-150 0 -273.5 42.5 -370.5 127.5s-145.5 192.833 -145.5 323.5s48.5 238.834 145.5 324.501s220.5 128.5 370.5 128.5c93.333 0 178 -17.5 254 -52.5
s137.333 -84.5 184 -148.5l-106 -74c-35.333 48.667 -81.833 86.167 -139.5 112.5s-121.834 39.5 -192.501 39.5c-109.333 0 -199.833 -31.167 -271.5 -93.5s-107.5 -140.5 -107.5 -234.5s36 -172.167 108 -234.5s162.333 -93.5 271 -93.5c76 0 143 15 201 45
s109 76.667 153 140zM325.001 -418.001l-0.000976562 76c63.333 -13.333 112 -22.5 146 -27.5s64 -7.5 90 -7.5c42.667 0 75.167 7.66699 97.5 23s33.5 37.666 33.5 66.999c0 36.667 -11.5 63.334 -34.5 80.001s-59.167 25 -108.5 25
c-12.667 0 -22.167 -0.166992 -28.5 -0.5s-12.5 -0.833008 -18.5 -1.5v184h63v-111h20c70.667 0 124.667 -14.667 162 -44s56 -72 56 -128c0 -56.667 -19.333 -100.167 -58 -130.5s-94.667 -45.5 -168 -45.5c-36 0 -73.167 3 -111.5 9s-85.166 16.667 -140.499 32z" />
    <glyph glyph-name="egrave" unicode="&#xe8;" horiz-adv-x="1028" 
d="M145 0v854h801v-125h-667v-213h438v-123h-438v-270h704v-123h-838zM586 987l-269 350h152l209 -350h-92z" />
    <glyph glyph-name="eacute" unicode="&#xe9;" horiz-adv-x="1028" 
d="M145 0v854h801v-125h-667v-213h438v-123h-438v-270h704v-123h-838zM520 987h-92l209 350h152z" />
    <glyph glyph-name="ecircumflex" unicode="&#xea;" horiz-adv-x="1028" 
d="M145 0v854h801v-125h-667v-213h438v-123h-438v-270h704v-123h-838zM277 987l200 350h152l200 -350h-92l-184 264l-184 -264h-92z" />
    <glyph glyph-name="edieresis" unicode="&#xeb;" horiz-adv-x="1028" 
d="M145 0v854h801v-125h-667v-213h438v-123h-438v-270h704v-123h-838zM625 1147c0 24.667 8.5 45.834 25.5 63.501s37.833 26.5 62.5 26.5s45.834 -8.83301 63.501 -26.5s26.5 -38.834 26.5 -63.501c0 -25.333 -8.83301 -46.666 -26.5 -63.999s-38.834 -26 -63.501 -26
s-45.5 8.66699 -62.5 26s-25.5 38.666 -25.5 63.999zM303 1147c0 24.667 8.83301 45.834 26.5 63.501s38.834 26.5 63.501 26.5s45.5 -8.83301 62.5 -26.5s25.5 -38.834 25.5 -63.501c0 -25.333 -8.5 -46.666 -25.5 -63.999s-37.833 -26 -62.5 -26
s-45.834 8.66699 -63.501 26s-26.5 38.666 -26.5 63.999z" />
    <glyph glyph-name="igrave" unicode="&#xec;" horiz-adv-x="432" 
d="M147 0v856h136v-856h-136zM250 987l-269 350h152l209 -350h-92z" />
    <glyph glyph-name="iacute" unicode="&#xed;" horiz-adv-x="432" 
d="M147 0v856h136v-856h-136zM184 987h-92l209 350h152z" />
    <glyph glyph-name="icircumflex" unicode="&#xee;" horiz-adv-x="432" 
d="M147 0v856h136v-856h-136zM-59 987l200 350h152l200 -350h-92l-184 264l-184 -264h-92z" />
    <glyph glyph-name="idieresis" unicode="&#xef;" horiz-adv-x="432" 
d="M147 0v856h136v-856h-136zM289 1147c0 24.667 8.5 45.834 25.5 63.501s37.833 26.5 62.5 26.5s45.834 -8.83301 63.501 -26.5s26.5 -38.834 26.5 -63.501c0 -25.333 -8.83301 -46.666 -26.5 -63.999s-38.834 -26 -63.501 -26s-45.5 8.66699 -62.5 26
s-25.5 38.666 -25.5 63.999zM-33 1147c0 24.667 8.83301 45.834 26.5 63.501s38.834 26.5 63.501 26.5s45.5 -8.83301 62.5 -26.5s25.5 -38.834 25.5 -63.501c0 -25.333 -8.5 -46.666 -25.5 -63.999s-37.833 -26 -62.5 -26s-45.834 8.66699 -63.501 26
s-26.5 38.666 -26.5 63.999z" />
    <glyph glyph-name="eth" unicode="&#xf0;" horiz-adv-x="1090" 
d="M561 854c139.333 0 251.668 -39.833 337.001 -119.5s128 -183.167 128 -310.5c0 -128.667 -41.833 -231.5 -125.5 -308.5s-196.834 -115.5 -339.501 -115.5h-381v403h-180v113h180v338h381zM563.002 731l-250 0.000976562v-215h262v-113h-262v-280h250
c101.333 0 181 27.167 239 81.5s87 128.166 87 221.499c0 90 -30 163.333 -90 220s-138.667 85 -236 85z" />
    <glyph glyph-name="ntilde" unicode="&#xf1;" horiz-adv-x="1038" 
d="M147 0v854h70l543 -600v600h131v-854h-70l-542 598v-598h-132zM809 1251c-17.333 -60.667 -41.999 -106.167 -73.999 -136.5s-71 -45.5 -117 -45.5c-8.66699 0 -18.5 0.833008 -29.5 2.5s-22.833 4.16699 -35.5 7.5l-97 31c-10.667 3.33301 -19.834 5.5 -27.501 6.5
s-16.167 1.5 -25.5 1.5c-19.333 0 -37 -6.16699 -53 -18.5s-29 -29.833 -39 -52.5h-80c14.667 58.667 38.667 103.667 72 135s74.333 47 123 47c10.667 0 20.334 -0.666992 29.001 -2s16.667 -3.33301 24 -6l96 -31c10.667 -4 21 -7 31 -9s18.333 -3 25 -3
c21.333 0 39.666 5.83301 54.999 17.5s29 30.167 41 55.5h82z" />
    <glyph glyph-name="ograve" unicode="&#xf2;" horiz-adv-x="1190" 
d="M594 98c114 0 206.999 30.833 278.999 92.5s108 140.167 108 235.5c0 94.667 -36.167 173 -108.5 235s-165.166 93 -278.499 93s-205.833 -30.833 -277.5 -92.5s-107.5 -140.167 -107.5 -235.5s35.833 -173.833 107.5 -235.5s164.167 -92.5 277.5 -92.5zM593.999 -27
c-152 0 -277.001 43.001 -375.001 129.001s-147 194 -147 324c0 130.667 48.833 238.5 146.5 323.5s222.834 127.5 375.501 127.5c154 0 279.833 -42.333 377.5 -127s146.5 -192.667 146.5 -324c0 -130.667 -49 -238.834 -147 -324.501s-223.667 -128.5 -377 -128.5z
M628.998 987.001l-269 350h152l209 -350h-92z" />
    <glyph glyph-name="oacute" unicode="&#xf3;" horiz-adv-x="1190" 
d="M594 98c114 0 206.999 30.833 278.999 92.5s108 140.167 108 235.5c0 94.667 -36.167 173 -108.5 235s-165.166 93 -278.499 93s-205.833 -30.833 -277.5 -92.5s-107.5 -140.167 -107.5 -235.5s35.833 -173.833 107.5 -235.5s164.167 -92.5 277.5 -92.5zM593.999 -27
c-152 0 -277.001 43.001 -375.001 129.001s-147 194 -147 324c0 130.667 48.833 238.5 146.5 323.5s222.834 127.5 375.501 127.5c154 0 279.833 -42.333 377.5 -127s146.5 -192.667 146.5 -324c0 -130.667 -49 -238.834 -147 -324.501s-223.667 -128.5 -377 -128.5z
M562.998 987.001h-92l209 350h152z" />
    <glyph glyph-name="ocircumflex" unicode="&#xf4;" horiz-adv-x="1190" 
d="M594 98c114 0 206.999 30.833 278.999 92.5s108 140.167 108 235.5c0 94.667 -36.167 173 -108.5 235s-165.166 93 -278.499 93s-205.833 -30.833 -277.5 -92.5s-107.5 -140.167 -107.5 -235.5s35.833 -173.833 107.5 -235.5s164.167 -92.5 277.5 -92.5zM593.999 -27
c-152 0 -277.001 43.001 -375.001 129.001s-147 194 -147 324c0 130.667 48.833 238.5 146.5 323.5s222.834 127.5 375.501 127.5c154 0 279.833 -42.333 377.5 -127s146.5 -192.667 146.5 -324c0 -130.667 -49 -238.834 -147 -324.501s-223.667 -128.5 -377 -128.5z
M319.998 987.001l200 350h152l200 -350h-92l-184 264l-184 -264h-92z" />
    <glyph glyph-name="otilde" unicode="&#xf5;" horiz-adv-x="1190" 
d="M594 98c114 0 206.999 30.833 278.999 92.5s108 140.167 108 235.5c0 94.667 -36.167 173 -108.5 235s-165.166 93 -278.499 93s-205.833 -30.833 -277.5 -92.5s-107.5 -140.167 -107.5 -235.5s35.833 -173.833 107.5 -235.5s164.167 -92.5 277.5 -92.5zM593.999 -27
c-152 0 -277.001 43.001 -375.001 129.001s-147 194 -147 324c0 130.667 48.833 238.5 146.5 323.5s222.834 127.5 375.501 127.5c154 0 279.833 -42.333 377.5 -127s146.5 -192.667 146.5 -324c0 -130.667 -49 -238.834 -147 -324.501s-223.667 -128.5 -377 -128.5z
M884.998 1251c-17.333 -60.667 -41.999 -106.167 -73.999 -136.5s-71 -45.5 -117 -45.5c-8.66699 0 -18.5 0.833008 -29.5 2.5s-22.833 4.16699 -35.5 7.5l-97 31c-10.667 3.33301 -19.834 5.5 -27.501 6.5s-16.167 1.5 -25.5 1.5c-19.333 0 -37 -6.16699 -53 -18.5
s-29 -29.833 -39 -52.5h-80c14.667 58.667 38.667 103.667 72 135s74.333 47 123 47c10.667 0 20.334 -0.666992 29.001 -2s16.667 -3.33301 24 -6l96 -31c10.667 -4 21 -7 31 -9s18.333 -3 25 -3c21.333 0 39.666 5.83301 54.999 17.5s29 30.167 41 55.5h82z" />
    <glyph glyph-name="odieresis" unicode="&#xf6;" horiz-adv-x="1190" 
d="M594 98c114 0 206.999 30.833 278.999 92.5s108 140.167 108 235.5c0 94.667 -36.167 173 -108.5 235s-165.166 93 -278.499 93s-205.833 -30.833 -277.5 -92.5s-107.5 -140.167 -107.5 -235.5s35.833 -173.833 107.5 -235.5s164.167 -92.5 277.5 -92.5zM593.999 -27
c-152 0 -277.001 43.001 -375.001 129.001s-147 194 -147 324c0 130.667 48.833 238.5 146.5 323.5s222.834 127.5 375.501 127.5c154 0 279.833 -42.333 377.5 -127s146.5 -192.667 146.5 -324c0 -130.667 -49 -238.834 -147 -324.501s-223.667 -128.5 -377 -128.5z
M667.998 1147c0 24.667 8.5 45.834 25.5 63.501s37.833 26.5 62.5 26.5s45.834 -8.83301 63.501 -26.5s26.5 -38.834 26.5 -63.501c0 -25.333 -8.83301 -46.666 -26.5 -63.999s-38.834 -26 -63.501 -26s-45.5 8.66699 -62.5 26s-25.5 38.666 -25.5 63.999zM345.998 1147
c0 24.667 8.83301 45.834 26.5 63.501s38.834 26.5 63.501 26.5s45.5 -8.83301 62.5 -26.5s25.5 -38.834 25.5 -63.501c0 -25.333 -8.5 -46.666 -25.5 -63.999s-37.833 -26 -62.5 -26s-45.834 8.66699 -63.501 26s-26.5 38.666 -26.5 63.999z" />
    <glyph glyph-name="divide" unicode="&#xf7;" horiz-adv-x="1706" 
d="M854 365c30 0 55.333 -10.333 76 -31s31 -46 31 -76c0 -29.333 -10.333 -54.333 -31 -75s-46 -31 -76 -31s-55.167 10.333 -75.5 31s-30.5 45.667 -30.5 75s10.333 54.5 31 75.5s45.667 31.5 75 31.5zM1452 659v-98h-1198v98h1198zM854 1071
c29.333 0 54.5 -10.667 75.5 -32s31.5 -46.666 31.5 -75.999c0 -30 -10.333 -55.333 -31 -76s-46 -31 -76 -31s-55.167 10.167 -75.5 30.5s-30.5 45.833 -30.5 76.5c0 29.333 10.5 54.666 31.5 75.999s45.833 32 74.5 32z" />
    <glyph glyph-name="oslash" unicode="&#xf8;" horiz-adv-x="1094" 
d="M63 -39l138 158c-38 44 -66.333 91.167 -85 141.5s-28 105.5 -28 165.5c0 130 43.5 237.667 130.5 323s196.5 128 328.5 128c48 0 92.667 -5.66699 134 -17s82 -29 122 -53l69 84h158l-137 -160c38 -44 66.333 -91 85 -141s28 -104.667 28 -164
c0 -130 -43.5 -238 -130.5 -324s-196.5 -129 -328.5 -129c-48.667 0 -93.5 5.66699 -134.5 17s-81.5 29 -121.5 53l-70 -82h-158zM287 217l436 498.001c-26 16 -53 27.833 -81 35.5s-59.667 11.5 -95 11.5c-94 0 -171.833 -31.833 -233.5 -95.5
s-92.5 -143.834 -92.5 -240.501c0 -38.667 5.5 -75.5 16.5 -110.5s27.5 -67.833 49.5 -98.5zM807 637.001l-434.002 -500.001c26 -15.333 52.833 -26.666 80.5 -33.999s58.834 -11 93.501 -11c94.667 0 172.834 31.5 234.501 94.5s92.5 142.833 92.5 239.5
c0 41.333 -5.5 79.333 -16.5 114s-27.833 67 -50.5 97z" />
    <glyph glyph-name="ugrave" unicode="&#xf9;" horiz-adv-x="1139" 
d="M147 852l133.998 0.000976562v-547c0 -82 19.333 -137.333 58 -166s115.334 -43 230.001 -43c115.333 0 192.333 14.333 231 43s58 84 58 166v547h133v-582c0 -104.667 -33.167 -180.334 -99.5 -227.001s-174.5 -70 -324.5 -70c-149.333 0 -256.666 23 -321.999 69
s-98 122 -98 228v582zM601.998 987.001l-269 350h152l209 -350h-92z" />
    <glyph glyph-name="uacute" unicode="&#xfa;" horiz-adv-x="1139" 
d="M147 852l133.998 0.000976562v-547c0 -82 19.333 -137.333 58 -166s115.334 -43 230.001 -43c115.333 0 192.333 14.333 231 43s58 84 58 166v547h133v-582c0 -104.667 -33.167 -180.334 -99.5 -227.001s-174.5 -70 -324.5 -70c-149.333 0 -256.666 23 -321.999 69
s-98 122 -98 228v582zM535.998 987.001h-92l209 350h152z" />
    <glyph glyph-name="ucircumflex" unicode="&#xfb;" horiz-adv-x="1139" 
d="M147 852l133.998 0.000976562v-547c0 -82 19.333 -137.333 58 -166s115.334 -43 230.001 -43c115.333 0 192.333 14.333 231 43s58 84 58 166v547h133v-582c0 -104.667 -33.167 -180.334 -99.5 -227.001s-174.5 -70 -324.5 -70c-149.333 0 -256.666 23 -321.999 69
s-98 122 -98 228v582zM292.998 987.001l200 350h152l200 -350h-92l-184 264l-184 -264h-92z" />
    <glyph glyph-name="udieresis" unicode="&#xfc;" horiz-adv-x="1139" 
d="M147 852l133.998 0.000976562v-547c0 -82 19.333 -137.333 58 -166s115.334 -43 230.001 -43c115.333 0 192.333 14.333 231 43s58 84 58 166v547h133v-582c0 -104.667 -33.167 -180.334 -99.5 -227.001s-174.5 -70 -324.5 -70c-149.333 0 -256.666 23 -321.999 69
s-98 122 -98 228v582zM640.998 1147c0 24.667 8.5 45.834 25.5 63.501s37.833 26.5 62.5 26.5s45.834 -8.83301 63.501 -26.5s26.5 -38.834 26.5 -63.501c0 -25.333 -8.83301 -46.666 -26.5 -63.999s-38.834 -26 -63.501 -26s-45.5 8.66699 -62.5 26
s-25.5 38.666 -25.5 63.999zM318.998 1147c0 24.667 8.83301 45.834 26.5 63.501s38.834 26.5 63.501 26.5s45.5 -8.83301 62.5 -26.5s25.5 -38.834 25.5 -63.501c0 -25.333 -8.5 -46.666 -25.5 -63.999s-37.833 -26 -62.5 -26s-45.834 8.66699 -63.501 26
s-26.5 38.666 -26.5 63.999z" />
    <glyph glyph-name="yacute" unicode="&#xfd;" horiz-adv-x="915" 
d="M391 0v436l-389 418h172l283 -303l278 303h178l-391 -416v-438h-131zM426 987h-92l209 350h152z" />
    <glyph glyph-name="thorn" unicode="&#xfe;" horiz-adv-x="1090" 
d="M281 563v-231h487c45.333 0 80.166 10 104.499 30s36.5 49 36.5 87c0 36 -11.667 64 -35 84s-56.666 30 -99.999 30h-493zM281 688h487.001c87.333 0 155.666 -21 204.999 -63s74 -100 74 -174c0 -72 -24.333 -130.667 -73 -176s-112.667 -68 -192 -68h-501v-207h-134
v854h134v-166z" />
    <glyph glyph-name="ydieresis" unicode="&#xff;" horiz-adv-x="915" 
d="M391 0v436l-389 418h172l283 -303l278 303h178l-391 -416v-438h-131zM531 1147c0 24.667 8.5 45.834 25.5 63.501s37.833 26.5 62.5 26.5s45.834 -8.83301 63.501 -26.5s26.5 -38.834 26.5 -63.501c0 -25.333 -8.83301 -46.666 -26.5 -63.999s-38.834 -26 -63.501 -26
s-45.5 8.66699 -62.5 26s-25.5 38.666 -25.5 63.999zM209 1147c0 24.667 8.83301 45.834 26.5 63.501s38.834 26.5 63.501 26.5s45.5 -8.83301 62.5 -26.5s25.5 -38.834 25.5 -63.501c0 -25.333 -8.5 -46.666 -25.5 -63.999s-37.833 -26 -62.5 -26
s-45.834 8.66699 -63.501 26s-26.5 38.666 -26.5 63.999z" />
    <glyph glyph-name="Cacute" unicode="&#x106;" horiz-adv-x="1237" 
d="M1047 352l110 -82c-50.667 -96 -120 -169.833 -208 -221.5s-188 -77.5 -300 -77.5c-165.333 0 -301.833 54.5 -409.5 163.5s-161.5 247.167 -161.5 414.5c0 168 54 306.5 162 415.5s244.333 163.5 409 163.5c102 0 195 -22.333 279 -67s152.333 -108.334 205 -191.001
l-115 -82c-34.667 66 -84.667 117.667 -150 155s-138.333 56 -219 56c-124 0 -226.667 -42.5 -308 -127.5s-122 -192.5 -122 -322.5s40.667 -237.333 122 -322s184 -127 308 -127c86.667 0 163.667 21.333 231 64s123 105.334 167 188.001zM624 1239h-92l209 350h152z" />
    <glyph glyph-name="cacute" unicode="&#x107;" horiz-adv-x="1128" 
d="M1049 209c-48.667 -76.667 -112.499 -135.168 -191.499 -175.501s-168.833 -60.5 -269.5 -60.5c-150 0 -273.5 42.5 -370.5 127.5s-145.5 192.833 -145.5 323.5s48.5 238.834 145.5 324.501s220.5 128.5 370.5 128.5c93.333 0 178 -17.5 254 -52.5
s137.333 -84.5 184 -148.5l-106 -74c-35.333 48.667 -81.833 86.167 -139.5 112.5s-121.834 39.5 -192.501 39.5c-109.333 0 -199.833 -31.167 -271.5 -93.5s-107.5 -140.5 -107.5 -234.5s36 -172.167 108 -234.5s162.333 -93.5 271 -93.5c76 0 143 15 201 45
s109 76.667 153 140zM532.001 986.999h-92l209 350h152z" />
    <glyph glyph-name="Ccaron" unicode="&#x10c;" horiz-adv-x="1237" 
d="M1047 352l110 -82c-50.667 -96 -120 -169.833 -208 -221.5s-188 -77.5 -300 -77.5c-165.333 0 -301.833 54.5 -409.5 163.5s-161.5 247.167 -161.5 414.5c0 168 54 306.5 162 415.5s244.333 163.5 409 163.5c102 0 195 -22.333 279 -67s152.333 -108.334 205 -191.001
l-115 -82c-34.667 66 -84.667 117.667 -150 155s-138.333 56 -219 56c-124 0 -226.667 -42.5 -308 -127.5s-122 -192.5 -122 -322.5s40.667 -237.333 122 -322s184 -127 308 -127c86.667 0 163.667 21.333 231 64s123 105.334 167 188.001zM381 1589h92l184 -262l184 262h92
l-200 -350h-152z" />
    <glyph glyph-name="ccaron" unicode="&#x10d;" horiz-adv-x="1128" 
d="M1049 209c-48.667 -76.667 -112.499 -135.168 -191.499 -175.501s-168.833 -60.5 -269.5 -60.5c-150 0 -273.5 42.5 -370.5 127.5s-145.5 192.833 -145.5 323.5s48.5 238.834 145.5 324.501s220.5 128.5 370.5 128.5c93.333 0 178 -17.5 254 -52.5
s137.333 -84.5 184 -148.5l-106 -74c-35.333 48.667 -81.833 86.167 -139.5 112.5s-121.834 39.5 -192.501 39.5c-109.333 0 -199.833 -31.167 -271.5 -93.5s-107.5 -140.5 -107.5 -234.5s36 -172.167 108 -234.5s162.333 -93.5 271 -93.5c76 0 143 15 201 45
s109 76.667 153 140zM289.001 1337h92l184 -262l184 262h92l-200 -350h-152z" />
    <glyph glyph-name="dcroat" unicode="&#x111;" horiz-adv-x="1090" 
d="M561 854c139.333 0 251.668 -39.833 337.001 -119.5s128 -183.167 128 -310.5c0 -128.667 -41.833 -231.5 -125.5 -308.5s-196.834 -115.5 -339.501 -115.5h-381v403h-180v113h180v338h381zM563.002 731l-250 0.000976562v-215h262v-113h-262v-280h250
c101.333 0 181 27.167 239 81.5s87 128.166 87 221.499c0 90 -30 163.333 -90 220s-138.667 85 -236 85z" />
    <glyph glyph-name="Gbreve" unicode="&#x11e;" horiz-adv-x="1266" 
d="M1012 299l0.00195312 162.001h-301v127h438v-332c-53.333 -92 -122.833 -162.5 -208.5 -211.5s-182.834 -73.5 -291.501 -73.5c-165.333 0 -301.833 54.5 -409.5 163.5s-161.5 247.167 -161.5 414.5c0 168 54 306.5 162 415.5s244.333 163.5 409 163.5
c102 0 195 -22.333 279 -67s152.333 -108.334 205 -191.001l-115 -82c-34.667 66 -84.667 117.667 -150 155s-138.333 56 -219 56c-124 0 -226.667 -42.5 -308 -127.5s-122 -192.5 -122 -322.5s40.667 -237.333 122 -322s184 -127 308 -127
c77.333 0 146.166 16.667 206.499 50s112.5 83 156.5 149zM359.002 1544h79.001c4 -50 21.667 -86.667 53 -110s78.666 -35 141.999 -35c64 0 111 11.5 141 34.5s47.333 59.833 52 110.5h81c-6 -90.667 -30.833 -157 -74.5 -199s-110.167 -63 -199.5 -63
c-88.667 0 -155 21 -199 63s-69 108.333 -75 199z" />
    <glyph glyph-name="gbreve" unicode="&#x11f;" horiz-adv-x="1176" 
d="M725 332l0.00195312 122.999h352v-258c-49.333 -73.333 -113.666 -129 -192.999 -167s-171.333 -57 -276 -57c-157.333 0 -286 42.5 -386 127.5s-150 192.833 -150 323.5s50.333 238.834 151 324.501s229 128.5 385 128.5c98.667 0 186.167 -17 262.5 -51
s139.833 -84 190.5 -150l-103 -74c-36 47.333 -84.833 84.5 -146.5 111.5s-129.5 40.5 -203.5 40.5c-116.667 0 -212.334 -31 -287.001 -93s-112 -140.333 -112 -235s37.167 -173 111.5 -235s170.166 -93 287.499 -93c73.333 0 141.166 13.333 203.499 40
s105.833 60.667 130.5 102v92h-217zM314.002 1292h79.001c4 -50 21.667 -86.667 53 -110s78.666 -35 141.999 -35c64 0 111 11.5 141 34.5s47.333 59.833 52 110.5h81c-6 -90.667 -30.833 -157 -74.5 -199s-110.167 -63 -199.5 -63c-88.667 0 -155 21 -199 63
s-69 108.333 -75 199z" />
    <glyph glyph-name="Idotaccent" unicode="&#x130;" horiz-adv-x="473" 
d="M168 0v1110h139v-1110h-139zM138 1399c0 27.333 9.83301 50.833 29.5 70.5s43.167 29.5 70.5 29.5s50.5 -9.66699 69.5 -29s28.5 -43 28.5 -71s-9.5 -51.333 -28.5 -70s-42.167 -28 -69.5 -28s-50.833 9.66699 -70.5 29s-29.5 42.333 -29.5 69z" />
    <glyph glyph-name="dotlessi" unicode="&#x131;" horiz-adv-x="432" 
d="M147 0v856h136v-856h-136z" />
    <glyph glyph-name="Lslash" unicode="&#x141;" horiz-adv-x="1165" 
d="M307 0v502l-307 -174v131l307 174v471h137v-410l361 209v-131l-361 -209v-436h721v-127h-858z" />
    <glyph glyph-name="lslash" unicode="&#x142;" horiz-adv-x="958" 
d="M180 0v342l-180 -102v125l180 102v387h133v-311l279 162v-127l-279 -162v-293h637v-123h-770z" />
    <glyph glyph-name="OE" unicode="&#x152;" horiz-adv-x="2019" 
d="M1069 0l-0.000976562 165.999c-52 -65.333 -112.667 -114.166 -182 -146.499s-148.666 -48.5 -237.999 -48.5c-165.333 0 -301.833 54.5 -409.5 163.5s-161.5 247.167 -161.5 414.5c0 168 54 306.5 162 415.5s244.333 163.5 409 163.5c90.667 0 169.667 -15.667 237 -47
s128.333 -81 183 -149v172h870v-127h-731v-324h443v-127h-443v-399h777v-127h-916zM648.999 99.999c124 0 226.667 42.332 308 126.999s122 192 122 322c0 130.667 -40.5 238.334 -121.5 323.001s-183.833 127 -308.5 127c-124 0 -226.667 -42.5 -308 -127.5
s-122 -192.5 -122 -322.5s40.667 -237.333 122 -322s184 -127 308 -127z" />
    <glyph glyph-name="oe" unicode="&#x153;" horiz-adv-x="1858" 
d="M975 854l803 -0.000976562v-125h-670v-213h438v-123h-438v-270h704v-123h-837v111c-52.667 -47.333 -109.5 -82.166 -170.5 -104.499s-131.167 -33.5 -210.5 -33.5c-152 0 -277 43 -375 129s-147 194 -147 324c0 132.667 49.5 241 148.5 325s228.167 126 387.5 126
c78 0 145.833 -10.667 203.5 -32s112.167 -56 163.5 -104v113zM594 97.999c114 0 206.999 30.833 278.999 92.5s108 140.167 108 235.5c0 94.667 -36.167 173 -108.5 235s-165.166 93 -278.499 93s-205.833 -30.833 -277.5 -92.5s-107.5 -140.167 -107.5 -235.5
s35.833 -173.833 107.5 -235.5s164.167 -92.5 277.5 -92.5z" />
    <glyph glyph-name="Scedilla" unicode="&#x15e;" horiz-adv-x="1223" 
d="M61 166l79.999 118.998c78 -60.667 159.167 -107 243.5 -139s167.833 -48 250.5 -48c102 0 184.833 21.667 248.5 65s95.5 99 95.5 167c0 54 -22.833 98.5 -68.5 133.5s-108.834 55.833 -189.501 62.5c-19.333 2 -47.333 4 -84 6c-181.333 12.667 -305 34 -371 64
c-51.333 24.667 -90.333 56.5 -117 95.5s-40 82.833 -40 131.5c0 88.667 39.667 161.667 119 219s182.333 86 309 86c92 0 182.833 -15.167 272.5 -45.5s174.834 -75.166 255.501 -134.499l-80 -114c-68 54.667 -139.5 95.834 -214.5 123.501s-152.167 41.5 -231.5 41.5
c-83.333 0 -152 -16.167 -206 -48.5s-81 -72.833 -81 -121.5c0 -19.333 4.33301 -37 13 -53s22 -31 40 -45c45.333 -34 143.333 -55.667 294 -65c69.333 -4 123 -8.33301 161 -13c112 -12.667 200.667 -48.667 266 -108s98 -132.333 98 -219
c0 -103.333 -44.833 -188.333 -134.5 -255s-207.167 -100 -352.5 -100c-110 0 -212.167 16 -306.5 48s-184.166 81 -269.499 147zM371.999 -418.002l-0.000976562 76c63.333 -13.333 112 -22.5 146 -27.5s64 -7.5 90 -7.5c42.667 0 75.167 7.66699 97.5 23
s33.5 37.666 33.5 66.999c0 36.667 -11.5 63.334 -34.5 80.001s-59.167 25 -108.5 25c-12.667 0 -22.167 -0.166992 -28.5 -0.5s-12.5 -0.833008 -18.5 -1.5v184h63v-111h20c70.667 0 124.667 -14.667 162 -44s56 -72 56 -128c0 -56.667 -19.333 -100.167 -58 -130.5
s-94.667 -45.5 -168 -45.5c-36 0 -73.167 3 -111.5 9s-85.166 16.667 -140.499 32z" />
    <glyph glyph-name="scedilla" unicode="&#x15f;" horiz-adv-x="1014" 
d="M72 109l65.001 112c58.667 -39.333 122.667 -70 192 -92s135.666 -33 198.999 -33c76 0 137.333 15.5 184 46.5s70 70.833 70 119.5s-21.333 84.834 -64 108.501s-110 36.834 -202 39.501c-155.333 2 -262 20 -320 54s-87 90.333 -87 169
c0 73.333 31.833 132.333 95.5 177s149.167 67 256.5 67c73.333 0 144.5 -10.333 213.5 -31s135.5 -51.334 199.5 -92.001l-67 -111c-53.333 36 -110.666 63.833 -171.999 83.5s-120 29.5 -176 29.5c-64.667 0 -116.667 -11.333 -156 -34s-59 -52.334 -59 -89.001
c0 -38 19.833 -65 59.5 -81s108.5 -24 206.5 -24c136 0 238.667 -23 308 -69s104 -114.333 104 -205c0 -80.667 -35.167 -147.667 -105.5 -201s-161.5 -80 -273.5 -80c-82.667 0 -164.834 11.833 -246.501 35.5s-156.5 57.167 -224.5 100.5zM268.001 -418l-0.000976562 76
c63.333 -13.333 112 -22.5 146 -27.5s64 -7.5 90 -7.5c42.667 0 75.167 7.66699 97.5 23s33.5 37.666 33.5 66.999c0 36.667 -11.5 63.334 -34.5 80.001s-59.167 25 -108.5 25c-12.667 0 -22.167 -0.166992 -28.5 -0.5s-12.5 -0.833008 -18.5 -1.5v184h63v-111h20
c70.667 0 124.667 -14.667 162 -44s56 -72 56 -128c0 -56.667 -19.333 -100.167 -58 -130.5s-94.667 -45.5 -168 -45.5c-36 0 -73.167 3 -111.5 9s-85.166 16.667 -140.499 32z" />
    <glyph glyph-name="Scaron" unicode="&#x160;" horiz-adv-x="1223" 
d="M61 166l79.999 118.998c78 -60.667 159.167 -107 243.5 -139s167.833 -48 250.5 -48c102 0 184.833 21.667 248.5 65s95.5 99 95.5 167c0 54 -22.833 98.5 -68.5 133.5s-108.834 55.833 -189.501 62.5c-19.333 2 -47.333 4 -84 6c-181.333 12.667 -305 34 -371 64
c-51.333 24.667 -90.333 56.5 -117 95.5s-40 82.833 -40 131.5c0 88.667 39.667 161.667 119 219s182.333 86 309 86c92 0 182.833 -15.167 272.5 -45.5s174.834 -75.166 255.501 -134.499l-80 -114c-68 54.667 -139.5 95.834 -214.5 123.501s-152.167 41.5 -231.5 41.5
c-83.333 0 -152 -16.167 -206 -48.5s-81 -72.833 -81 -121.5c0 -19.333 4.33301 -37 13 -53s22 -31 40 -45c45.333 -34 143.333 -55.667 294 -65c69.333 -4 123 -8.33301 161 -13c112 -12.667 200.667 -48.667 266 -108s98 -132.333 98 -219
c0 -103.333 -44.833 -188.333 -134.5 -255s-207.167 -100 -352.5 -100c-110 0 -212.167 16 -306.5 48s-184.166 81 -269.499 147zM335.999 1589h92l184 -262l184 262h92l-200 -350h-152z" />
    <glyph glyph-name="scaron" unicode="&#x161;" horiz-adv-x="1014" 
d="M72 109l65.001 112c58.667 -39.333 122.667 -70 192 -92s135.666 -33 198.999 -33c76 0 137.333 15.5 184 46.5s70 70.833 70 119.5s-21.333 84.834 -64 108.501s-110 36.834 -202 39.501c-155.333 2 -262 20 -320 54s-87 90.333 -87 169
c0 73.333 31.833 132.333 95.5 177s149.167 67 256.5 67c73.333 0 144.5 -10.333 213.5 -31s135.5 -51.334 199.5 -92.001l-67 -111c-53.333 36 -110.666 63.833 -171.999 83.5s-120 29.5 -176 29.5c-64.667 0 -116.667 -11.333 -156 -34s-59 -52.334 -59 -89.001
c0 -38 19.833 -65 59.5 -81s108.5 -24 206.5 -24c136 0 238.667 -23 308 -69s104 -114.333 104 -205c0 -80.667 -35.167 -147.667 -105.5 -201s-161.5 -80 -273.5 -80c-82.667 0 -164.834 11.833 -246.501 35.5s-156.5 57.167 -224.5 100.5zM232.001 1337h92l184 -262
l184 262h92l-200 -350h-152z" />
    <glyph glyph-name="Ydieresis" unicode="&#x178;" horiz-adv-x="930" 
d="M395 0v553l-497 551h172l395 -436l393 436h174l-500 -553v-551h-137zM537 1399c0 24.667 8.5 45.834 25.5 63.501s37.833 26.5 62.5 26.5s45.834 -8.83301 63.501 -26.5s26.5 -38.834 26.5 -63.501c0 -25.333 -8.83301 -46.666 -26.5 -63.999s-38.834 -26 -63.501 -26
s-45.5 8.66699 -62.5 26s-25.5 38.666 -25.5 63.999zM215 1399c0 24.667 8.83301 45.834 26.5 63.501s38.834 26.5 63.501 26.5s45.5 -8.83301 62.5 -26.5s25.5 -38.834 25.5 -63.501c0 -25.333 -8.5 -46.666 -25.5 -63.999s-37.833 -26 -62.5 -26
s-45.834 8.66699 -63.501 26s-26.5 38.666 -26.5 63.999z" />
    <glyph glyph-name="Zcaron" unicode="&#x17d;" horiz-adv-x="1042" 
d="M-4 0l745 977h-682v127h932l-729 -977h725v-127h-991zM246 1589h92l184 -262l184 262h92l-200 -350h-152z" />
    <glyph glyph-name="zcaron" unicode="&#x17e;" horiz-adv-x="895" 
d="M35 0l553 729h-504v125h750l-558 -731h553v-123h-794zM173 1337h92l184 -262l184 262h92l-200 -350h-152z" />
    <glyph glyph-name="florin" unicode="&#x192;" horiz-adv-x="1366" 
d="M647 76c-26 -118.667 -68.333 -204.667 -127 -258s-139 -80 -241 -80c-26 0 -55.667 2.83301 -89 8.5s-74 15.167 -122 28.5l45 121c31.333 -10 60 -17.333 86 -22s49 -7 69 -7c67.333 0 120.166 17.333 158.499 52s65.5 89.667 81.5 165l106 494h-245l26 129h246l41 194
c24.667 117.333 66.667 203 126 257s140.333 81 243 81c25.333 0 54.666 -2.83301 87.999 -8.5s74.333 -15.167 123 -28.5l-45 -121c-32 10 -61 17.333 -87 22s-49 7 -69 7c-67.333 0 -120.666 -17.667 -159.999 -53s-66.666 -90 -81.999 -164l-37 -186h279l-27 -129h-278z
" />
    <glyph glyph-name="circumflex" unicode="&#x2c6;" 
d="M236 987l200 350h152l200 -350h-92l-184 264l-184 -264h-92z" />
    <glyph glyph-name="caron" unicode="&#x2c7;" 
d="M236 1337h92l184 -262l184 262h92l-200 -350h-152z" />
    <glyph glyph-name="breve" unicode="&#x2d8;" 
d="M238 1292h79.001c4 -50 21.667 -86.667 53 -110s78.666 -35 141.999 -35c64 0 111 11.5 141 34.5s47.333 59.833 52 110.5h81c-6 -90.667 -30.833 -157 -74.5 -199s-110.167 -63 -199.5 -63c-88.667 0 -155 21 -199 63s-69 108.333 -75 199z" />
    <glyph glyph-name="dotaccent" unicode="&#x2d9;" 
d="M412 1147c0 27.333 9.83301 50.833 29.5 70.5s43.167 29.5 70.5 29.5s50.5 -9.66699 69.5 -29s28.5 -43 28.5 -71s-9.5 -51.333 -28.5 -70s-42.167 -28 -69.5 -28s-50.833 9.66699 -70.5 29s-29.5 42.333 -29.5 69z" />
    <glyph glyph-name="ring" unicode="&#x2da;" 
d="M362 1208c0 -42 14.5 -77.333 43.5 -106s64.5 -43 106.5 -43c41.333 0 77 14.5 107 43.5s45 64.167 45 105.5c0 42 -15 77.833 -45 107.5s-65.667 44.5 -107 44.5c-42 0 -77.5 -14.667 -106.5 -44s-43.5 -65.333 -43.5 -108zM272 1210
c0 67.333 23.1689 124.168 69.502 170.501s103.166 69.5 170.499 69.5c66.667 0 123.667 -23.333 171 -70s71 -103.334 71 -170.001c0 -66 -23.667 -122.667 -71 -170s-104.333 -71 -171 -71s-123.334 23.5 -170.001 70.5s-70 103.833 -70 170.5z" />
    <glyph glyph-name="ogonek" unicode="&#x2db;" 
d="M578 0c-48.667 -42 -85.167 -82.833 -109.5 -122.5s-36.5 -77.5 -36.5 -113.5c0 -30.667 8.16699 -52.667 24.5 -66s44.5 -20 84.5 -20h75v-104h-71c-72 0 -125.167 13.167 -159.5 39.5s-51.5 67.166 -51.5 122.499c0 40.667 15.333 83.334 46 128.001s76 90 136 136h62z
" />
    <glyph glyph-name="tilde" unicode="&#x2dc;" 
d="M801 1251c-17.333 -60.667 -41.999 -106.167 -73.999 -136.5s-71 -45.5 -117 -45.5c-8.66699 0 -18.5 0.833008 -29.5 2.5s-22.833 4.16699 -35.5 7.5l-97 31c-10.667 3.33301 -19.834 5.5 -27.501 6.5s-16.167 1.5 -25.5 1.5c-19.333 0 -37 -6.16699 -53 -18.5
s-29 -29.833 -39 -52.5h-80c14.667 58.667 38.667 103.667 72 135s74.333 47 123 47c10.667 0 20.334 -0.666992 29.001 -2s16.667 -3.33301 24 -6l96 -31c10.667 -4 21 -7 31 -9s18.333 -3 25 -3c21.333 0 39.666 5.83301 54.999 17.5s29 30.167 41 55.5h82z" />
    <glyph glyph-name="hungarumlaut" unicode="&#x2dd;" 
d="M571 987l168 350h133l-227 -350h-74zM336 987l149 350h133l-208 -350h-74z" />
    <glyph glyph-name="Omega" unicode="&#x3a9;" horiz-adv-x="1579" 
d="M1462 139l0.000976562 -138.999h-581v127c138 82.667 242.333 180.5 313 293.5s106 237.833 106 374.5c0 173.333 -47.167 313.5 -141.5 420.5s-216.833 160.5 -367.5 160.5c-152 0 -275.333 -53.333 -370 -160s-142 -246.334 -142 -419.001
c0 -138 35.5 -263.833 106.5 -377.5s175.167 -211.167 312.5 -292.5v-127h-581v139h344c-115.333 88.667 -200.833 185.834 -256.5 291.501s-83.5 223.5 -83.5 353.5c0 213.333 62.833 388.166 188.5 524.499s286.167 204.5 481.5 204.5c194 0 354 -67.833 480 -203.5
s189 -310.167 189 -523.5c0 -130.667 -27.833 -248.667 -83.5 -354s-141.834 -203 -258.501 -293h344z" />
    <glyph glyph-name="pi" unicode="&#x3c0;" horiz-adv-x="1171" 
d="M1120 944h-182.003l-115 -541c-10 -46 -17.5 -85 -22.5 -117s-7.5 -55.667 -7.5 -71c0 -38.667 8.33301 -66 25 -82s45 -24 85 -24c19.333 0 36.333 0.833008 51 2.5s28.334 3.83398 41.001 6.50098l-26 -118c-18.667 -5.33301 -36.5 -9.33301 -53.5 -12
s-32.833 -4 -47.5 -4c-67.333 0 -119.666 17.667 -156.999 53s-56 85 -56 149c0 30.667 3.66699 70 11 118s22.333 125.667 45 233l86 407h-365l-199 -944h-139l199 944h-39c-36.667 0 -65.167 -10.5 -85.5 -31.5s-34.166 -54.167 -41.499 -99.5h-131
c16.667 95.333 46 161.166 88 197.499s113.667 54.5 215 54.5h848z" />
    <glyph glyph-name="endash" unicode="&#x2013;" 
d="M0 592h1024v-84h-1024v84z" />
    <glyph glyph-name="emdash" unicode="&#x2014;" horiz-adv-x="2048" 
d="M2048 592v-84h-2048v84h2048z" />
    <glyph glyph-name="quoteleft" unicode="&#x2018;" horiz-adv-x="682" 
d="M436 1094c-20.667 -30.667 -38.5 -60.668 -53.5 -90.001s-27.167 -58 -36.5 -86h8c20.667 0 37.834 -8.66699 51.501 -26s20.5 -39 20.5 -65c0 -28 -7.83301 -51 -23.5 -69s-35.834 -27 -60.501 -27c-28 0 -50.667 12 -68 36s-26 56.333 -26 97
c0 38 12.667 79.333 38 124s62.333 91.334 111 140.001z" />
    <glyph glyph-name="quoteright" unicode="&#x2019;" horiz-adv-x="682" 
d="M248 766c19.333 28.667 36.333 57.668 51 87.001s27 59 37 89h-10c-20.667 0 -37.5 8.16699 -50.5 24.5s-19.5 37.5 -19.5 63.5c0 28.667 8.16699 52.167 24.5 70.5s36.833 27.5 61.5 27.5c28 0 50.667 -12.167 68 -36.5s26 -57.166 26 -98.499
c0 -36.667 -12.667 -76.834 -38 -120.501s-63 -90.834 -113 -141.501z" />
    <glyph glyph-name="quotesinglbase" unicode="&#x201a;" horiz-adv-x="682" 
d="M248 -174c20 29.333 37.334 58.334 52.001 87.001s26.667 57.667 36 87h-8c-20.667 0 -37.834 8.5 -51.501 25.5s-20.5 38.5 -20.5 64.5c0 28.667 8.16699 52.167 24.5 70.5s36.833 27.5 61.5 27.5c28 0 50.667 -12.167 68 -36.5s26 -57.166 26 -98.499
c0 -36.667 -12.667 -76.834 -38 -120.501s-63 -90.834 -113 -141.501z" />
    <glyph glyph-name="quotedblleft" unicode="&#x201c;" horiz-adv-x="1014" 
d="M436 1094c-20.667 -30.667 -38.5 -60.668 -53.5 -90.001s-27.167 -58 -36.5 -86h8c20.667 0 37.834 -8.66699 51.501 -26s20.5 -39 20.5 -65c0 -28 -7.83301 -51 -23.5 -69s-35.834 -27 -60.501 -27c-28 0 -50.667 12 -68 36s-26 56.333 -26 97
c0 38 12.667 79.333 38 124s62.333 91.334 111 140.001zM768 1094c-20.667 -30.667 -38.499 -60.668 -53.499 -90.001s-27.167 -58 -36.5 -86h8c20 0 37 -8.66699 51 -26s21 -39 21 -65c0 -28 -7.83301 -51 -23.5 -69s-35.834 -27 -60.501 -27c-28 0 -50.667 12 -68 36
s-26 56.333 -26 97c0 38 12.5 79.333 37.5 124s62.167 91.334 111.5 140.001z" />
    <glyph glyph-name="quotedblright" unicode="&#x201d;" horiz-adv-x="1014" 
d="M580 766c19.333 28.667 36.333 57.668 51 87.001s27 59 37 89h-11c-20 0 -36.5 8.16699 -49.5 24.5s-19.5 37.5 -19.5 63.5c0 28.667 8.16699 52.167 24.5 70.5s36.833 27.5 61.5 27.5c28 0 50.667 -12.167 68 -36.5s26 -57.166 26 -98.499
c0 -36.667 -12.667 -76.834 -38 -120.501s-63.333 -90.834 -114 -141.501zM248 766.001c19.333 28.667 36.333 57.668 51 87.001s27 59 37 89h-10c-20.667 0 -37.5 8.16699 -50.5 24.5s-19.5 37.5 -19.5 63.5c0 28.667 8.16699 52.167 24.5 70.5s36.833 27.5 61.5 27.5
c28 0 50.667 -12.167 68 -36.5s26 -57.166 26 -98.499c0 -36.667 -12.667 -76.834 -38 -120.501s-63 -90.834 -113 -141.501z" />
    <glyph glyph-name="quotedblbase" unicode="&#x201e;" horiz-adv-x="1014" 
d="M580 -176c19.333 28 36.333 56.834 51 86.501s27 59.5 37 89.5h-11c-20 0 -36.5 8.16699 -49.5 24.5s-19.5 37.5 -19.5 63.5c0 28.667 8.16699 52.167 24.5 70.5s36.833 27.5 61.5 27.5c28 0 50.667 -12.167 68 -36.5s26 -57.166 26 -98.499
c0 -36.667 -12.667 -76.834 -38 -120.501s-63.333 -90.834 -114 -141.501zM248 -175.999c19.333 28 36.333 56.834 51 86.501s27 59.5 37 89.5h-10c-20.667 0 -37.5 8.16699 -50.5 24.5s-19.5 37.5 -19.5 63.5c0 28.667 8.16699 52.167 24.5 70.5s36.833 27.5 61.5 27.5
c28 0 50.667 -12.167 68 -36.5s26 -57.166 26 -98.499c0 -36.667 -12.667 -76.834 -38 -120.501s-63 -90.834 -113 -141.501z" />
    <glyph glyph-name="dagger" unicode="&#x2020;" 
d="M449 -154v830h-283v117h283v311h129v-311h280v-117h-280v-830h-129z" />
    <glyph glyph-name="daggerdbl" unicode="&#x2021;" 
d="M446 676h-280v119h280v309h132v-309h280v-119h-280v-402h280v-118h-280v-310h-132v310h-280v118h280v402z" />
    <glyph glyph-name="bullet" unicode="&#x2022;" horiz-adv-x="1208" 
d="M307 762c0 82 28.999 151.666 86.999 208.999s128 86 210 86c81.333 0 150.833 -28.833 208.5 -86.5s86.5 -127.167 86.5 -208.5s-29.167 -151.166 -87.5 -209.499s-128.166 -87.5 -209.499 -87.5c-82 0 -151.667 29 -209 87s-86 128 -86 210z" />
    <glyph glyph-name="ellipsis" unicode="&#x2026;" horiz-adv-x="2048" 
d="M342 154c23.333 0 42.834 -8.66895 58.501 -26.002s23.5 -39.666 23.5 -66.999c0 -26 -7.83301 -47.5 -23.5 -64.5s-35.167 -25.5 -58.5 -25.5c-24 0 -44 8.5 -60 25.5s-24 38.5 -24 64.5c0 26.667 8.16699 48.834 24.5 66.501s36.166 26.5 59.499 26.5zM1024 153.998
c23.333 0 42.834 -8.66895 58.501 -26.002s23.5 -39.666 23.5 -66.999c0 -26 -7.83301 -47.5 -23.5 -64.5s-35.167 -25.5 -58.5 -25.5c-24 0 -44 8.5 -60 25.5s-24 38.5 -24 64.5c0 26.667 8.16699 48.834 24.5 66.501s36.166 26.5 59.499 26.5zM1708 153.996
c23.333 0 42.834 -8.66895 58.501 -26.002s23.5 -39.666 23.5 -66.999c0 -26 -7.83301 -47.5 -23.5 -64.5s-35.167 -25.5 -58.5 -25.5c-24 0 -44 8.5 -60 25.5s-24 38.5 -24 64.5c0 26.667 8.16699 48.834 24.5 66.501s36.166 26.5 59.499 26.5z" />
    <glyph glyph-name="perthousand" unicode="&#x2030;" horiz-adv-x="2470" 
d="M2101 90c53.333 0 97.833 19 133.5 57s53.5 85.333 53.5 142c0 57.333 -17.833 105 -53.5 143s-80.167 57 -133.5 57c-52.667 0 -96.5 -19 -131.5 -57s-52.5 -85.667 -52.5 -143s17.5 -104.833 52.5 -142.5s78.833 -56.5 131.5 -56.5zM2105 -29
c-90 0 -165.001 30.168 -225.001 90.501s-90 136.166 -90 227.499s29.833 167 89.5 227s134.834 90 225.501 90c91.333 0 166.5 -29.833 225.5 -89.5s88.5 -135.5 88.5 -227.5s-29.667 -168 -89 -228s-134.333 -90 -225 -90zM1358 90.001c52.667 0 96.832 19 132.499 57
s53.5 85.333 53.5 142c0 57.333 -17.667 105 -53 143s-79.666 57 -132.999 57c-52.667 0 -96.5 -19 -131.5 -57s-52.5 -85.667 -52.5 -143s17.5 -104.833 52.5 -142.5s78.833 -56.5 131.5 -56.5zM1358 -28.999c-90 0 -164.831 30.168 -224.498 90.501
s-89.5 136.166 -89.5 227.499s29.667 167 89 227s134.333 90 225 90c91.333 0 166.666 -29.833 225.999 -89.5s89 -135.5 89 -227.5s-29.833 -168 -89.5 -228s-134.834 -90 -225.501 -90zM1071 1051h143l-561 -1051h-143zM366.999 557.002
c52.667 0 96.832 19.3291 132.499 57.9961s53.5 86.334 53.5 143.001s-17.667 103.834 -53 141.501s-79.666 56.5 -132.999 56.5s-97.5 -18.667 -132.5 -56s-52.5 -84.666 -52.5 -141.999s17.667 -105.166 53 -143.499s79.333 -57.5 132 -57.5zM366.997 437.998
c-90 0 -165.167 30.168 -225.5 90.501s-90.5 136.166 -90.5 227.499s30 167.333 90 228s135.333 91 226 91s165.5 -30 224.5 -90s88.5 -136.333 88.5 -229c0 -92 -29.667 -168 -89 -228s-134 -90 -224 -90z" />
    <glyph glyph-name="guilsinglleft" unicode="&#x2039;" horiz-adv-x="418" 
d="M371 84l-324 242v198l324 244v-145l-254 -197l254 -201v-141z" />
    <glyph glyph-name="guilsinglright" unicode="&#x203a;" horiz-adv-x="418" 
d="M47 84v141l254 201l-254 197v145l324 -244v-198z" />
    <glyph glyph-name="franc" unicode="&#x20a3;" horiz-adv-x="2124" 
d="M166 0v1104h868v-127h-731v-324h442v-127h-442v-526h-137zM1295 498h454c46 0 81.167 10 105.5 30s36.5 48.667 36.5 86s-12.167 65.833 -36.5 85.5s-59.5 29.5 -105.5 29.5h-454v-231zM1295 373l0.000976562 -373h-134v852h588c87.333 0 155.666 -21 204.999 -63
s74 -100.333 74 -175c0 -60.667 -19.5 -113.167 -58.5 -157.5s-89.833 -71.5 -152.5 -81.5l237 -375h-145l-242 373h-372z" />
    <glyph glyph-name="trademark" unicode="&#x2122;" horiz-adv-x="1706" 
d="M938 1454l166 -422l156 422h116v-530h-71v467l-177 -467h-49l-186 467v-467h-72v530h117zM694 1454v-57h-172v-473h-82v473h-176v57h430z" />
    <glyph glyph-name="partialdiff" unicode="&#x2202;" horiz-adv-x="1034" 
d="M752 592c8 55.333 14 108.667 18 160s6 101 6 149c0 105.333 -13.333 186 -40 242s-65 84 -115 84c-33.333 0 -69.333 -22.833 -108 -68.5s-73 -68.5 -103 -68.5c-20.667 0 -38.167 6.66699 -52.5 20s-21.5 29 -21.5 47c0 41.333 21.167 77 63.5 107
s94.166 45 155.499 45c110 0 198 -50.167 264 -150.5s99 -235.833 99 -406.5c0 -222.667 -45.333 -408.167 -136 -556.5s-201.667 -222.5 -333 -222.5c-95.333 0 -173.166 35.667 -233.499 107s-90.5 164 -90.5 278c0 119.333 36.333 220.833 109 304.5s160 125.5 262 125.5
c65.333 0 118.833 -16 160.5 -48s73.5 -81.333 95.5 -148zM711 463.001c0 85.333 -15 149.667 -45 193s-74.667 65 -134 65c-75.333 0 -137.5 -41.5 -186.5 -124.5s-73.5 -190.5 -73.5 -322.5c0 -84 14.833 -146.833 44.5 -188.5s74.5 -62.5 134.5 -62.5
c74.667 0 136.667 41.833 186 125.5s74 188.5 74 314.5z" />
    <glyph glyph-name="Delta" unicode="&#x2206;" horiz-adv-x="1346" 
d="M1139 139l-467 1186l-465 -1186h932zM766 1473l590 -1473h-1366l590 1473h186z" />
    <glyph glyph-name="product" unicode="&#x220f;" horiz-adv-x="1509" 
d="M160 1473h1188v-1866h-168v1718h-852v-1718h-168v1866z" />
    <glyph glyph-name="summation" unicode="&#x2211;" horiz-adv-x="1317" 
d="M49 1473h1223v-144h-1014l705 -766l-740 -813h1057v-143h-1266v133l744 821l-709 772v140z" />
    <glyph glyph-name="minus" unicode="&#x2212;" horiz-adv-x="1706" 
d="M1452 659v-98h-1198v98h1198z" />
    <glyph glyph-name="fraction" unicode="&#x2215;" horiz-adv-x="342" 
d="M545 1073h137l-885 -1102h-139z" />
    <glyph glyph-name="periodcentered" unicode="&#x2219;" horiz-adv-x="682" 
d="M256 535c0 24 7.99902 44.333 23.999 61s36 25 60 25s44.667 -8.5 62 -25.5s26 -37.167 26 -60.5c0 -24 -8.5 -44.333 -25.5 -61s-37.833 -25 -62.5 -25c-23.333 0 -43.166 8.33301 -59.499 25s-24.5 37 -24.5 61z" />
    <glyph glyph-name="radical" unicode="&#x221a;" horiz-adv-x="1276" 
d="M1276 1636v-71h-125l-594 -1606h-41l-328 899l-114 -39l-19 58l246 86l272 -746l525 1419h178z" />
    <glyph glyph-name="infinity" unicode="&#x221e;" horiz-adv-x="1706" 
d="M897 559c34.667 -66.667 75.334 -116.501 122.001 -149.501s99.667 -49.5 159 -49.5c70.667 0 128.5 25 173.5 75s67.5 114 67.5 192c0 75.333 -20.833 137.833 -62.5 187.5s-93.834 74.5 -156.501 74.5c-57.333 0 -109 -24.667 -155 -74s-95.333 -134.666 -148 -255.999
zM811 667.999c-34.667 66 -75.166 115.168 -121.499 147.501s-99.5 48.5 -159.5 48.5c-70.667 0 -128.5 -24.833 -173.5 -74.5s-67.5 -112.834 -67.5 -189.501c0 -74.667 21 -137 63 -187s94 -75 156 -75c58 0 110.167 25 156.5 75s95.166 135 146.499 255zM838.001 721
c48 96 97.665 164.67 148.998 206.003s112 62 182 62c82.667 0 154.334 -35.833 215.001 -107.5s91 -160.167 91 -265.5c0 -112.667 -27.167 -203.834 -81.5 -273.501s-124.833 -104.5 -211.5 -104.5c-63.333 0 -119.333 20.167 -168 60.5s-97.334 108.166 -146.001 203.499
c-47.333 -92.667 -96.666 -159.834 -147.999 -201.501s-109 -62.5 -173 -62.5c-88 0 -162.333 35.5 -223 106.5s-91 160.167 -91 267.5c0 112.667 27.167 203.667 81.5 273s124.833 104 211.5 104c64.667 0 121.834 -21.333 171.501 -64s96.5 -110.667 140.5 -204z" />
    <glyph glyph-name="integral" unicode="&#x222b;" horiz-adv-x="985" 
d="M293 -272c69.333 0 108.333 237.665 117 712.998c1.33301 84.667 2.66602 150 3.99902 196c7.33301 324 40 556.833 98 698.5s147.333 212.5 268 212.5c46.667 0 84.667 -12.333 114 -37s44 -56.667 44 -96c0 -32 -9.5 -57.333 -28.5 -76s-45.167 -28 -78.5 -28
c-52 0 -86.333 23.167 -103 69.5s-28 69.5 -34 69.5c-70 0 -108.667 -207.667 -116 -623c-2.66699 -123.333 -5 -219.666 -7 -288.999c-10 -331.333 -43.667 -565.666 -101 -702.999s-146.333 -206 -267 -206c-46 0 -83.833 12 -113.5 36s-44.5 54.333 -44.5 91
c0 34 10.333 61 31 81s48 30 82 30c24 0 44.5 -5.5 61.5 -16.5s30.5 -28.167 40.5 -51.5c2.66699 -6 5 -17 7 -33c2.66699 -25.333 11.334 -38 26.001 -38z" />
    <glyph glyph-name="approxequal" unicode="&#x2248;" horiz-adv-x="1706" 
d="M1530 469c-70.667 -49.333 -137.664 -85.833 -200.997 -109.5s-125.333 -35.5 -186 -35.5c-67.333 0 -164.333 23.167 -291 69.5s-222.334 69.5 -287.001 69.5c-54.667 0 -111.667 -12.167 -171 -36.5s-131.333 -65.5 -216 -123.5v111
c71.333 49.333 138.666 85.833 201.999 109.5s125 35.5 185 35.5c72.667 0 172.167 -22.833 298.5 -68.5s219.5 -68.5 279.5 -68.5c57.333 0 115.666 11.833 174.999 35.5s130 64.5 212 122.5v-111zM1530 807c-69.333 -49.333 -135.667 -85.833 -199 -109.5
s-126 -35.5 -188 -35.5c-68.667 0 -166 23.167 -292 69.5s-221.333 69.5 -286 69.5c-54.667 0 -111.667 -12.167 -171 -36.5s-131.333 -65.5 -216 -123.5v113c70 48.667 137 85 201 109s126 36 186 36c72.667 0 172.167 -23.167 298.5 -69.5s219.5 -69.5 279.5 -69.5
c56 0 113 11.5 171 34.5s130 64.167 216 123.5v-111z" />
    <glyph glyph-name="notequal" unicode="&#x2260;" horiz-adv-x="1706" 
d="M1288 1110l-205 -264h369v-96h-432l-215 -277h647v-98h-709l-254 -324l-73 60l205 264h-367v98h428l215 277h-643v96h707l253 323z" />
    <glyph glyph-name="lessequal" unicode="&#x2264;" horiz-adv-x="1706" 
d="M1442 139v-98h-1178v98h1178zM1442 1075l-1010 -338l1010 -336v-106l-1178 401v84l1178 402v-107z" />
    <glyph glyph-name="greaterequal" unicode="&#x2265;" horiz-adv-x="1706" 
d="M1442 139v-98h-1178v98h1178zM1442 780v-84l-1178 -401v106l1010 336l-1010 338v107z" />
    <glyph glyph-name="lozenge" unicode="&#x25ca;" horiz-adv-x="1012" 
d="M506 1409l-385 -817l385 -825l385 825zM506 1653l500 -1061l-500 -1069l-500 1069z" />
    <glyph glyph-name="apple" unicode="&#xf000;" horiz-adv-x="1618" 
d="M836 1216c-0.666992 4 -1.16699 8.66895 -1.5 14.002s-0.5 13 -0.5 23c0 82.667 31.667 159.167 95 229.5s142 114.166 236 131.499c0.666992 -6.66699 1.16699 -14.334 1.5 -23.001s0.5 -21.667 0.5 -39c0 -87.333 -34.5 -165.5 -103.5 -234.5
s-136.833 -103.5 -203.5 -103.5h-8c-2 0 -4.5 0.333008 -7.5 1s-5.83301 1 -8.5 1zM1505 403.002c-76 -164.667 -144.335 -278.835 -205.002 -342.502s-128.667 -95.5 -204 -95.5c-33.333 0 -77.166 11 -131.499 33s-95.166 33 -122.499 33c-30 0 -73.667 -11 -131 -33
s-99.666 -33 -126.999 -33c-42.667 0 -85.5 14.667 -128.5 44s-86.167 73.333 -129.5 132c-68 93.333 -120.5 191.833 -157.5 295.5s-55.5 203.834 -55.5 300.501c0 146 41.667 264.833 125 356.5s191 137.5 323 137.5c45.333 0 97 -11.333 155 -34s99.333 -34 124 -34
c22.667 0 63.167 11.333 121.5 34s109.166 34 152.499 34c74 0 140.333 -13.167 199 -39.5s112 -67.166 160 -122.499c-68 -43.333 -118.5 -91.833 -151.5 -145.5s-49.5 -114.5 -49.5 -182.5c0 -75.333 20 -142 60 -200s97.667 -104 173 -138z" />
    <glyph glyph-name="fi" unicode="&#xf001;" horiz-adv-x="1395" 
d="M279 393v-393h-134v854h789v-125h-655v-213h423v-123h-423zM1110 0v856h136v-856h-136z" />
    <glyph glyph-name="fl" unicode="&#xf002;" horiz-adv-x="1882" 
d="M279 393v-393h-134v854h789v-125h-655v-213h423v-123h-423zM1108 0v854h134v-731h634v-123h-768z" />
    <glyph glyph-name=".null" horiz-adv-x="0" 
 />
    <glyph glyph-name="nonmarkingreturn" horiz-adv-x="682" 
 />
    </font>
</defs>
</svg>
